<svg width="92" height="100" viewBox="0 0 92 100" fill="none" xmlns="http://www.w3.org/2000/svg">
<path d="M82.5163 41.3118H71.9464V7.65587C71.9436 6.40009 71.4427 5.19672 70.5537 4.30976C69.6648 3.4228 68.4603 2.92468 67.2045 2.92468H27.0109C26.7258 2.92474 26.4523 3.03807 26.2507 3.23974L3.63781 25.8419C3.43614 26.0435 3.32281 26.3169 3.32275 26.6021V91.2688C3.3256 92.5245 3.82645 93.7279 4.71543 94.6149C5.60441 95.5018 6.80891 95.9999 8.06469 95.9999H67.2045C68.4603 95.9999 69.6648 95.5018 70.5537 94.6149C71.4427 93.7279 71.9436 92.5245 71.9464 91.2688V87.0537H82.5163C83.7307 87.0523 84.895 86.5692 85.7537 85.7105C86.6125 84.8518 87.0955 83.6875 87.097 82.4731V45.8924C87.0955 44.678 86.6125 43.5137 85.7537 42.655C84.895 41.7963 83.7307 41.3132 82.5163 41.3118ZM25.9367 6.5935V22.9462C25.935 23.6301 25.6626 24.2855 25.179 24.7691C24.6954 25.2527 24.04 25.5251 23.3561 25.5268H6.98942L25.9367 6.5935ZM69.7959 91.2688C69.7936 91.9544 69.5195 92.6111 69.0337 93.0948C68.5479 93.5786 67.8901 93.85 67.2045 93.8494H8.06469C7.37909 93.85 6.72126 93.5786 6.23546 93.0948C5.74966 92.6111 5.47557 91.9544 5.47329 91.2688V27.6817H23.3518C24.6059 27.6794 25.808 27.1802 26.6947 26.2934C27.5815 25.4067 28.0807 24.2046 28.083 22.9505V5.07522H67.2045C67.8902 5.07436 68.5482 5.34563 69.034 5.82948C69.5199 6.31332 69.7939 6.97019 69.7959 7.65587V41.3118H59.226C58.0116 41.3132 56.8473 41.7963 55.9885 42.655C55.1298 43.5137 54.6468 44.678 54.6453 45.8924V82.4731C54.6468 83.6875 55.1298 84.8518 55.9885 85.7105C56.8473 86.5692 58.0116 87.0523 59.226 87.0537H69.7959V91.2688ZM84.9464 82.4731C84.9456 83.1173 84.6892 83.7349 84.2337 84.1905C83.7782 84.646 83.1605 84.9023 82.5163 84.9032H59.226C58.5817 84.9023 57.9641 84.646 57.5086 84.1905C57.053 83.7349 56.7967 83.1173 56.7959 82.4731V45.8924C56.7967 45.2482 57.053 44.6306 57.5086 44.175C57.9641 43.7195 58.5817 43.4632 59.226 43.4623H82.5163C83.1605 43.4632 83.7782 43.7195 84.2337 44.175C84.6892 44.6306 84.9456 45.2482 84.9464 45.8924V82.4731ZM81.4421 46.5161H60.3002C60.015 46.5161 59.7415 46.6294 59.5398 46.831C59.3382 47.0327 59.2249 47.3062 59.2249 47.5913V55.3999C59.2249 55.6851 59.3382 55.9586 59.5398 56.1603C59.7415 56.3619 60.015 56.4752 60.3002 56.4752H81.4421C81.7273 56.4752 82.0008 56.3619 82.2024 56.1603C82.4041 55.9586 82.5174 55.6851 82.5174 55.3999V47.5913C82.5174 47.3062 82.4041 47.0327 82.2024 46.831C82.0008 46.6294 81.7273 46.5161 81.4421 46.5161ZM80.3668 54.3247H61.3754V48.6666H80.3668V54.3247ZM68.2679 60.9913H60.3002C60.015 60.9913 59.7415 61.1046 59.5398 61.3063C59.3382 61.5079 59.2249 61.7814 59.2249 62.0666V70.0344C59.2249 70.3195 59.3382 70.593 59.5398 70.7947C59.7415 70.9963 60.015 71.1096 60.3002 71.1096H68.2679C68.5531 71.1096 68.8266 70.9963 69.0282 70.7947C69.2299 70.593 69.3432 70.3195 69.3432 70.0344V62.0666C69.3423 61.782 69.2287 61.5093 69.0271 61.3084C68.8255 61.1074 68.5525 60.9946 68.2679 60.9946V60.9913ZM67.1926 68.9591H61.3754V63.1419H67.1926V68.9591ZM81.4421 60.9913H73.4744C73.1892 60.9913 72.9157 61.1046 72.714 61.3063C72.5124 61.5079 72.3991 61.7814 72.3991 62.0666V70.0344C72.3991 70.3195 72.5124 70.593 72.714 70.7947C72.9157 70.9963 73.1892 71.1096 73.4744 71.1096H81.4421C81.7273 71.1096 82.0008 70.9963 82.2024 70.7947C82.4041 70.593 82.5174 70.3195 82.5174 70.0344V62.0666C82.5165 61.782 82.4029 61.5093 82.2013 61.3084C81.9998 61.1074 81.7267 60.9946 81.4421 60.9946V60.9913ZM80.3668 68.9591H74.5496V63.1419H80.3668V68.9591ZM68.2679 73.0322H60.3002C60.015 73.0322 59.7415 73.1455 59.5398 73.3471C59.3382 73.5488 59.2249 73.8223 59.2249 74.1075V82.0763C59.2249 82.3615 59.3382 82.635 59.5398 82.8366C59.7415 83.0383 60.015 83.1516 60.3002 83.1516H68.2679C68.5531 83.1516 68.8266 83.0383 69.0282 82.8366C69.2299 82.635 69.3432 82.3615 69.3432 82.0763V74.1075C69.3432 73.8223 69.2299 73.5488 69.0282 73.3471C68.8266 73.1455 68.5531 73.0322 68.2679 73.0322ZM67.1926 81.001H61.3754V75.1827H67.1926V81.001ZM81.4421 73.0322H73.4744C73.1892 73.0322 72.9157 73.1455 72.714 73.3471C72.5124 73.5488 72.3991 73.8223 72.3991 74.1075V82.0763C72.3991 82.3615 72.5124 82.635 72.714 82.8366C72.9157 83.0383 73.1892 83.1516 73.4744 83.1516H81.4421C81.7273 83.1516 82.0008 83.0383 82.2024 82.8366C82.4041 82.635 82.5174 82.3615 82.5174 82.0763V74.1075C82.5174 73.8223 82.4041 73.5488 82.2024 73.3471C82.0008 73.1455 81.7273 73.0322 81.4421 73.0322ZM80.3668 81.001H74.5496V75.1827H80.3668V81.001ZM23.4668 90.6236C23.4668 90.9088 23.3536 91.1823 23.1519 91.3839C22.9502 91.5856 22.6768 91.6989 22.3916 91.6989H17.2464C14.6952 91.696 12.2493 90.6813 10.4454 88.8773C8.64139 87.0734 7.62668 84.6275 7.62383 82.0763C7.62383 81.7911 7.73712 81.5176 7.93877 81.316C8.14042 81.1143 8.41392 81.001 8.6991 81.001C8.98428 81.001 9.25778 81.1143 9.45943 81.316C9.66108 81.5176 9.77437 81.7911 9.77437 82.0763C9.77636 84.0574 10.5642 85.9568 11.9651 87.3576C13.3659 88.7585 15.2653 89.5463 17.2464 89.5483H22.3916C22.6768 89.5483 22.9502 89.6616 23.1519 89.8633C23.3536 90.0649 23.4668 90.3384 23.4668 90.6236ZM39.2464 90.6236C39.2464 90.9088 39.1331 91.1823 38.9315 91.3839C38.7298 91.5856 38.4563 91.6989 38.1711 91.6989H29.0615C28.7763 91.6989 28.5028 91.5856 28.3011 91.3839C28.0995 91.1823 27.9862 90.9088 27.9862 90.6236C27.9862 90.3384 28.0995 90.0649 28.3011 89.8633C28.5028 89.6616 28.7763 89.5483 29.0615 89.5483H38.1722C38.4574 89.5483 38.7309 89.6616 38.9325 89.8633C39.1342 90.0649 39.2464 90.3384 39.2464 90.6236ZM48.3572 47.5913C48.3572 47.8765 48.2439 48.15 48.0422 48.3517C47.8406 48.5533 47.5671 48.6666 47.2819 48.6666H17.6754C17.3903 48.6666 17.1168 48.5533 16.9151 48.3517C16.7135 48.15 16.6002 47.8765 16.6002 47.5913C16.6002 47.3062 16.7135 47.0327 16.9151 46.831C17.1168 46.6294 17.3903 46.5161 17.6754 46.5161H47.2819C47.5671 46.5161 47.8406 46.6294 48.0422 46.831C48.2439 47.0327 48.3572 47.3062 48.3572 47.5913ZM48.3572 55.3999C48.3572 55.6851 48.2439 55.9586 48.0422 56.1603C47.8406 56.3619 47.5671 56.4752 47.2819 56.4752H29.0615C28.7763 56.4752 28.5028 56.3619 28.3011 56.1603C28.0995 55.9586 27.9862 55.6851 27.9862 55.3999C27.9862 55.1148 28.0995 54.8413 28.3011 54.6396C28.5028 54.438 28.7763 54.3247 29.0615 54.3247H47.2819C47.5671 54.3247 47.8406 54.438 48.0422 54.6396C48.2439 54.8413 48.3572 55.1148 48.3572 55.3999ZM48.3572 62.0666C48.3572 62.3518 48.2439 62.6253 48.0422 62.8269C47.8406 63.0286 47.5671 63.1419 47.2819 63.1419H29.0615C28.7763 63.1419 28.5028 63.0286 28.3011 62.8269C28.0995 62.6253 27.9862 62.3518 27.9862 62.0666C27.9862 61.7814 28.0995 61.5079 28.3011 61.3063C28.5028 61.1046 28.7763 60.9913 29.0615 60.9913H47.2819C47.4234 60.9913 47.5635 61.0193 47.6941 61.0735C47.8248 61.1277 47.9435 61.2072 48.0434 61.3074C48.1433 61.4076 48.2224 61.5265 48.2762 61.6574C48.3301 61.7882 48.3576 61.9284 48.3572 62.0698V62.0666ZM48.3572 68.7333C48.3572 69.0185 48.2439 69.292 48.0422 69.4936C47.8406 69.6953 47.5671 69.8085 47.2819 69.8085H29.0615C28.7763 69.8085 28.5028 69.6953 28.3011 69.4936C28.0995 69.292 27.9862 69.0185 27.9862 68.7333C27.9862 68.4481 28.0995 68.1746 28.3011 67.9729C28.5028 67.7713 28.7763 67.658 29.0615 67.658H47.2819C47.4236 67.658 47.5638 67.686 47.6946 67.7404C47.8254 67.7947 47.9442 67.8744 48.0441 67.9748C48.1441 68.0753 48.2231 68.1944 48.2769 68.3255C48.3306 68.4566 48.3579 68.597 48.3572 68.7387V68.7333ZM31.9894 19.7118H59.3185C59.6036 19.7118 59.8771 19.5985 60.0788 19.3968C60.2804 19.1952 60.3937 18.9217 60.3937 18.6365V11.9698C60.3937 11.6847 60.2804 11.4112 60.0788 11.2095C59.8771 11.0079 59.6036 10.8946 59.3185 10.8946H31.9894C31.7042 10.8946 31.4307 11.0079 31.2291 11.2095C31.0274 11.4112 30.9142 11.6847 30.9142 11.9698V18.6365C30.9142 18.9217 31.0274 19.1952 31.2291 19.3968C31.4307 19.5985 31.7042 19.7118 31.9894 19.7118ZM33.0647 13.0451H58.2432V17.5612H33.0647V13.0451Z" fill="#F2B72F"/>
</svg>
