<svg width="121" height="83" viewBox="0 0 121 83" fill="none" xmlns="http://www.w3.org/2000/svg">
<g clip-path="url(#clip0_47_173)">
<path d="M119.114 10.8993C118.98 11.0067 118.899 11.1677 118.899 11.3288C118.067 19.8657 117.208 28.4026 116.456 36.9396C115.705 45.4765 115.007 53.9865 114.443 62.5234C114.148 67.0604 113.906 71.5973 113.691 76.1342L112.591 75.3288L112.429 75.2214C112.456 75.1677 112.456 75.1141 112.483 75.0335C113.127 69.8523 113.691 64.6442 114.148 59.4362C114.174 59.114 113.879 58.8456 113.584 58.8456C113.262 58.8456 113.047 59.114 113.02 59.4362C112.564 64.4563 112.027 69.4765 111.409 74.4966C111.141 74.2818 110.872 74.0671 110.604 73.8523C110.577 73.7986 110.55 73.7718 110.497 73.7449C111.168 68.6442 111.812 63.5436 112.483 58.4161C113.154 53.1275 113.852 47.812 114.523 42.5234C114.738 40.9396 114.926 39.3557 115.141 37.7718C115.248 36.9932 115.356 36.1879 115.436 35.4094C116.054 30.7114 116.644 25.9865 117.047 21.2349C117.235 19.2751 117.396 17.2885 117.584 15.3288C117.691 14.3355 117.772 13.3422 117.906 12.3758C117.96 11.8926 118.013 11.4093 118.067 10.9261C118.094 10.7114 118.389 9.63754 118.255 9.47646C118.631 9.93284 118.899 10.3892 119.114 10.8993ZM114.792 76.9127C115.168 68.3758 115.731 59.812 116.376 51.2751C117.047 42.7651 117.825 34.2281 118.631 25.7181C118.98 22.0402 119.329 18.3355 119.705 14.6577C119.705 15.3288 119.651 15.9731 119.624 16.6442C118.362 36.5369 117.074 56.4563 115.812 76.3758C115.785 76.8053 115.785 77.2349 115.839 77.6644C115.785 77.6375 115.731 77.6107 115.678 77.5838L114.792 76.9127ZM111.248 75.8657C98.7919 76.1073 86.3355 76.2416 73.906 76.2953C61.3691 76.3489 48.8322 76.3221 36.2952 76.2147C32.8859 76.2147 29.4765 76.161 26.0671 76.1073C24.3758 76.1073 22.6577 76.0268 20.9664 76C19.302 75.9463 17.6375 76 15.9731 75.9731C15.5436 75.9731 15.1677 75.8657 14.7382 75.8657H14.7114C14.6577 75.8389 14.5771 75.8389 14.4966 75.8389C14.4429 75.8389 14.4161 75.8389 14.3892 75.8389C14.2013 75.651 13.9865 75.463 13.8791 75.463C25.7181 75.5704 37.557 75.5973 49.3691 75.5704C62.3087 75.5436 75.2214 75.4362 88.1342 75.2751C95.4093 75.1946 102.711 75.0872 109.987 74.953H110.013C110.067 75.0067 110.121 75.0604 110.174 75.1141L111.248 75.8657ZM15.8926 77.1006C28.2147 77.3154 40.5369 77.4228 52.8859 77.4496C65.4228 77.4765 77.9597 77.4228 90.4966 77.2885C97.557 77.2349 104.644 77.1275 111.705 76.9932C111.785 76.9932 111.866 76.9932 111.919 76.9664H111.946C112.134 76.9396 112.349 76.9396 112.537 76.9127C112.564 76.9127 112.617 76.9127 112.671 76.9127L113.235 77.3422C113.745 77.6912 114.255 78.0671 114.765 78.4429C114.899 78.5234 115.034 78.604 115.141 78.7114C102.497 78.5771 89.8523 78.4429 77.208 78.3087C64.4026 78.1745 51.6241 78.0402 38.8187 77.906C37.6644 77.8792 36.4832 77.8792 35.3288 77.8523C32.7785 77.8255 30.2281 77.7986 27.6778 77.7718C25.208 77.7449 22.7114 77.7181 20.2147 77.6912C19.651 77.6912 19.0872 77.6912 18.5503 77.6912C17.9597 77.6644 16.9127 77.8792 16.4026 77.5302C16.2147 77.4228 16.0536 77.2617 15.8926 77.1006ZM113.933 55.2214C113.611 55.2483 113.396 55.4899 113.369 55.7852C113.315 56.4026 113.289 57.0469 113.235 57.6644C113.208 57.9597 113.503 58.2281 113.799 58.2281C114.121 58.2013 114.336 57.9597 114.362 57.6644L114.497 55.7852C114.523 55.4899 114.228 55.2214 113.933 55.2214ZM98.2818 24.2953H97.5301L97.557 24.2684C97.5838 24.1073 97.6107 23.9731 97.6375 23.812C97.6644 23.7583 97.6644 23.6778 97.6644 23.5973L98.3624 23.6241C98.3355 23.8389 98.3087 24.0536 98.2818 24.2953ZM96.3758 24.2953H95.5436C95.5436 24.2416 95.5704 24.2147 95.5704 24.161V23.5704H96.4295L96.3489 23.9463C96.3221 24.0268 96.3221 24.1073 96.3489 24.1879C96.3489 24.2147 96.3489 24.2684 96.3758 24.2953ZM94.3355 24.2953H93.2348C93.2617 24.2416 93.2617 24.2147 93.2617 24.161V23.5167L94.3355 23.5436V24.161C94.3355 24.2147 94.3355 24.2416 94.3355 24.2953ZM92.0536 24.2953H91.0603V24.2416L91.0335 23.4899L92.0268 23.5167V24.161C92.0268 24.2147 92.0268 24.2416 92.0536 24.2953ZM89.8254 24.2953H88.9127C88.9127 24.2684 88.9127 24.2416 88.9127 24.2147L88.9664 23.463H89.7986L89.8254 24.2416V24.2953ZM87.6778 24.2953H86.4697L86.5234 23.651C86.5234 23.5704 86.4966 23.4899 86.4697 23.4362H87.7315L87.6778 24.2147C87.6778 24.2416 87.6778 24.2684 87.6778 24.2953ZM85.2348 24.2953H84.161C84.161 24.2684 84.161 24.2416 84.161 24.2147C84.1879 23.9463 84.2147 23.7047 84.2147 23.463V23.4093H85.3422C85.2885 23.4899 85.2885 23.5704 85.2885 23.651L85.2348 24.2953ZM82.9261 24.2953H81.7718L81.8254 23.7047C81.8254 23.6241 81.7986 23.5436 81.7718 23.463C81.7449 23.4362 81.7449 23.4093 81.7181 23.3825H82.9798V23.463C82.9798 23.7047 82.953 23.9463 82.9261 24.2147C82.9261 24.2416 82.9261 24.2684 82.9261 24.2953ZM80.5369 24.2953H79.2214L79.3288 23.3557H80.6979L80.6711 23.3825C80.6174 23.4899 80.5905 23.5973 80.5905 23.7047L80.5369 24.2953ZM77.9865 24.2953H77.0738L77.1812 23.3557V23.3288H78.0939V23.3557L77.9865 24.2953ZM75.8389 24.2953H74.6308L74.7382 23.302L75.9463 23.3288V23.3557L75.8389 24.2953ZM73.3959 24.2953H72.4295C72.4026 24.0536 72.4295 23.812 72.4563 23.5973C72.4563 23.5704 72.4563 23.5704 72.4563 23.5704C72.4832 23.4899 72.4832 23.4093 72.4563 23.3288V23.302H73.5033L73.3959 24.2953ZM71.1946 24.2953H70.6845H70.2281C70.2281 24.0805 70.2281 23.8657 70.255 23.651C70.255 23.6241 70.255 23.6241 70.255 23.6241C70.2818 23.5436 70.2818 23.463 70.255 23.3825C70.255 23.3557 70.255 23.302 70.255 23.2751L71.2483 23.302C71.1946 23.6241 71.1677 23.9731 71.1946 24.2953ZM68.9932 24.2953H68.2416V23.463C68.2416 23.3825 68.2147 23.3288 68.2147 23.2751H69.0738V23.302C69.0201 23.6241 68.9664 23.9731 68.9932 24.2953ZM67.0067 24.2953H66.0671L66.0939 24.2416L66.2013 23.2751H67.0335C67.0067 23.3288 67.0067 23.3825 67.0067 23.463V24.2953ZM64.859 24.2953H64.0268V24.2416C64.0536 23.9731 64.0805 23.6778 64.1342 23.4093C64.1342 23.3557 64.1342 23.302 64.1073 23.2751H64.9664L64.859 24.2416V24.2953ZM62.7919 24.2953H61.8523L61.9597 23.2751H62.8993C62.8993 23.302 62.8993 23.3557 62.8993 23.4093C62.8456 23.6778 62.8187 23.9731 62.7919 24.2416V24.2953ZM60.6174 24.2953L59.6778 24.3221L59.812 23.4093C59.812 23.3557 59.8389 23.3288 59.8389 23.2751H60.7248L60.6174 24.2953ZM58.4429 24.3221H57.5301L57.6375 23.4093C57.6375 23.3557 57.6375 23.302 57.6107 23.2751H58.5771L58.4697 24.0805C58.4429 24.161 58.4161 24.2416 58.4429 24.3221ZM56.2952 24.3221H55.2751L55.4093 23.302V23.2751H55.4362H56.4026C56.4026 23.3288 56.4026 23.3557 56.4026 23.4093L56.2952 24.3221ZM54.0402 24.3221H52.859C52.9127 23.9731 52.9664 23.6241 52.9932 23.2751H54.1744V23.302L54.0402 24.3221ZM51.5973 24.3221H50.3355C50.3624 24.2953 50.3624 24.2416 50.3892 24.2147C50.4429 23.9194 50.4966 23.5973 50.5234 23.302H51.7583C51.7315 23.4093 51.7315 23.5436 51.7046 23.651C51.6778 23.812 51.651 23.9731 51.6241 24.1342C51.5973 24.1879 51.5973 24.2416 51.5973 24.3221ZM49.208 24.3221H48.2952L48.4026 23.4093C48.4026 23.3825 48.4026 23.3557 48.4026 23.302H49.2885V23.3825C49.2617 23.5436 49.2348 23.7315 49.1812 23.8926C49.1543 24.0268 49.1543 24.1879 49.208 24.3221ZM47.0604 24.3221H46.1744C46.2281 24.0268 46.2818 23.7583 46.3624 23.463C46.3892 23.4362 46.3892 23.3825 46.3892 23.3288H47.1677C47.1677 23.3557 47.1677 23.3825 47.1677 23.4093L47.0604 24.3221ZM44.9395 24.3221H43.7852C43.812 24.2147 43.812 24.1073 43.812 24C43.8389 23.8389 43.8926 23.6778 43.9194 23.5167C43.9463 23.463 43.9463 23.4093 43.9463 23.3557L45.1275 23.3288C45.0469 23.651 44.9932 23.9731 44.9395 24.3221ZM42.5503 24.3221H40.9395L41.0469 23.5436C41.0469 23.4899 41.0469 23.4362 41.0201 23.3825L42.6845 23.3557C42.604 23.6778 42.5771 24 42.5503 24.3221ZM39.7046 24.3221H38.6577L38.8456 23.6778C38.8724 23.5973 38.8724 23.4899 38.8456 23.4093L39.8389 23.3825C39.812 23.4362 39.812 23.4899 39.812 23.5436L39.7046 24.3221ZM37.3959 24.3221H36.3489L36.4295 23.7583C36.4563 23.6778 36.4563 23.5973 36.4563 23.5167C36.4563 23.4899 36.4295 23.463 36.4295 23.4362L37.6375 23.4093L37.3959 24.3221ZM35.0872 24.3221H34.1208L34.2013 23.5973C34.2013 23.5436 34.2013 23.5167 34.1744 23.463L35.2483 23.4362L35.0872 24.2953V24.3221ZM32.8859 24.3221H31.5973C31.5973 24.1879 31.6241 24.0805 31.6241 23.9463C31.651 23.8657 31.651 23.7583 31.6778 23.6778C31.7046 23.6241 31.7046 23.5436 31.7046 23.4899H32.9664C32.9664 23.5167 32.9664 23.5704 32.9664 23.5973L32.8859 24.3221ZM30.3624 24.3221H29.2617L29.3422 23.9194C29.3691 23.8389 29.3691 23.7583 29.3422 23.6778C29.3422 23.6241 29.3422 23.5704 29.3154 23.5436L30.4429 23.5167C30.4161 23.7852 30.3624 24.0536 30.3624 24.3221ZM27.9999 24.3221H27.1946L27.3825 23.5704H27.4093L28.161 23.5436L28.1342 23.5973C28.1073 23.812 28.0536 24.0536 27.9999 24.2953V24.3221ZM99.7046 23.3288C99.7046 23.2483 99.7046 23.1677 99.6778 23.0604C99.5436 22.0939 97.7718 22.3624 97.1275 22.3624C95.5973 22.3355 94.0671 22.3087 92.5369 22.2818C89.5033 22.2281 86.4429 22.1744 83.4093 22.1476C79.3288 22.0939 75.2483 22.0671 71.1677 22.0671C61.7986 22.0134 52.4563 22.0402 43.114 22.1208C39.1946 22.1476 35.2751 22.2013 31.3557 22.2818C30.5503 22.2818 29.7449 22.2818 28.9395 22.3087C28.5369 22.3087 28.161 22.3087 27.7583 22.3355C27.3288 22.3355 26.8993 22.1744 26.5234 22.4429C26.2281 22.6577 26.2013 23.114 26.1476 23.4093C26.0671 23.7583 25.9597 24.1073 25.8791 24.4295C25.8255 24.6979 25.6644 25.0201 25.8791 25.2617C26.0939 25.5033 26.4966 25.4496 26.7919 25.4496C29.4496 25.5302 32.0805 25.557 34.7382 25.557C36.7785 25.557 38.8456 25.557 40.8859 25.557C42.9261 25.557 44.9932 25.557 47.0335 25.557H52.0536C52.9664 25.557 53.8791 25.557 54.7919 25.557C54.8456 25.557 54.9261 25.557 54.9798 25.557C64.2952 25.5302 73.6107 25.5302 82.9261 25.5302C85.6912 25.5302 88.4563 25.5302 91.2214 25.5302C92.6442 25.5302 94.0402 25.5302 95.4362 25.5302C96.1342 25.5302 96.8322 25.5302 97.5301 25.5302C98.0134 25.5302 98.8456 25.6912 99.2214 25.3422C99.6241 24.9932 99.7046 23.812 99.7046 23.3288ZM11.463 74.2281C11.3825 74.2281 11.3288 74.2281 11.2483 74.2281C11.1677 74.2281 11.114 73.9865 11.0872 73.9328C11.0604 73.8255 11.0335 73.6912 11.0335 73.5838C11.0335 73.5033 11.0335 73.3154 11.114 73.2885C11.1677 73.2617 11.2751 73.2885 11.3288 73.2885C11.4093 73.2885 11.4899 73.2885 11.5436 73.2885C12.1342 73.2885 12.7248 73.2885 13.3154 73.2885C14.4966 73.3154 15.6778 73.3154 16.859 73.3422C18.0402 73.3422 19.2214 73.3422 20.4026 73.3691C21.5838 73.3691 22.765 73.3691 23.9194 73.3691C25.1006 73.3959 26.2818 73.3959 27.463 73.3959C28.6442 73.3959 29.8255 73.3959 31.0067 73.4228C32.1879 73.4228 33.3691 73.4228 34.5503 73.4228C35.7315 73.4228 36.8859 73.4228 38.0671 73.4228C39.2483 73.4228 40.4295 73.4228 41.6107 73.4228C42.7919 73.4228 43.9731 73.4228 45.1543 73.4228C46.3355 73.3959 47.5167 73.3959 48.6711 73.3959C49.8523 73.3959 51.0335 73.3959 52.2147 73.3691C53.3959 73.3691 54.5771 73.3691 55.7583 73.3691C56.9395 73.3422 58.1208 73.3422 59.302 73.3422C60.4832 73.3154 61.6375 73.3154 62.8187 73.2885C63.9999 73.2885 65.1812 73.2617 66.3624 73.2617C67.5436 73.2349 68.7248 73.2349 69.906 73.208C71.0872 73.208 72.2684 73.1812 73.4228 73.1543C74.604 73.1543 75.7852 73.1275 76.9664 73.1006C78.1476 73.1006 79.3288 73.0738 80.51 73.0469C81.6912 73.0201 82.8724 73.0201 84.0536 72.9932C85.208 72.9664 86.3892 72.9396 87.5704 72.9127C88.7516 72.8859 89.9328 72.8859 91.114 72.859C92.2952 72.8322 93.4765 72.8053 94.6577 72.7785C95.812 72.7516 96.9932 72.7248 98.1744 72.6711C99.3557 72.6442 100.537 72.6174 101.718 72.5906C102.899 72.5637 104.08 72.5369 105.262 72.51C105.718 72.4832 106.201 72.4832 106.685 72.4563C107.06 72.4563 107.49 72.4295 107.785 72.161C108.054 71.9194 108.134 71.5436 108.215 71.1677C109.611 64 110.98 56.8322 112.376 49.6912C111.329 57.6912 110.309 65.7181 109.262 73.7181C76.6711 74.3087 44.0536 74.4697 11.463 74.2281ZM8.75163 72C8.9127 71.463 9.07377 70.9261 9.208 70.3892C9.28854 70.1208 9.39592 70.1745 9.66438 70.1745C9.95968 70.1745 10.2281 70.1745 10.4966 70.1745C11.6241 70.1745 12.7248 70.2013 13.8523 70.2013C16.0536 70.2013 18.2818 70.2281 20.51 70.255C22.7382 70.2818 24.9395 70.3087 27.1677 70.3355C29.3959 70.3624 31.6241 70.3892 33.8523 70.3892C36.0536 70.3892 38.2818 70.3892 40.51 70.3892C42.7382 70.3624 44.9395 70.3355 47.1677 70.3087C49.3959 70.255 51.5973 70.2013 53.8255 70.0939C56.0536 70.0134 58.255 69.906 60.4563 69.7449C62.6845 69.6107 64.8858 69.4228 67.114 69.2349C69.0469 69.0469 70.9798 68.8322 72.9127 68.5906C80.6442 67.651 88.4026 66.1745 95.4093 62.8187C102.416 59.463 108.671 53.9865 111.678 46.8187L106.953 71.2214C74.2281 72.1342 41.5033 72.4026 8.75163 72ZM104.51 55.1677C101.396 57.9865 97.8254 60.2953 94.0134 62.1208C88.1073 64.9127 81.6375 66.4697 75.1677 67.2214C73.6107 67.4093 72.0268 67.5436 70.4429 67.651C72.6711 66.953 74.8724 66.0939 76.9932 65.0469C81.7181 62.7114 86.0134 59.1946 88.3758 54.4161C91.6778 56.1342 96.1879 56.4295 99.7852 56.1879C101.45 56.0805 103.034 55.7315 104.51 55.1677ZM3.40934 67.5436C8.21471 59.302 11.0604 49.9865 13.7181 40.8859C15.1946 35.8657 16.4026 30.7651 16.9127 25.557C17.4228 20.4295 17.557 15.2751 17.7986 10.1208C20.5369 10.1476 23.2751 10.1744 26.0402 10.2013C26.2013 11.0872 26.4966 11.9731 26.953 12.7516C27.4899 13.6644 28.2684 14.4161 29.1543 14.953C29.0738 15.7852 29.2617 16.6442 29.8791 17.2349C30.6845 18.0402 31.9731 18.2013 32.9664 17.6644C33.9328 17.1543 34.5234 16 34.3892 14.8993C34.1744 13.208 32.4563 11.8389 30.765 12.4832C30.0134 12.0805 29.6912 10.9798 29.5033 10.2013C35.6778 10.255 41.8791 10.255 48.0536 10.255C48.161 10.6577 48.2684 11.0604 48.4295 11.4362C48.9127 12.6174 49.6644 13.6375 50.6845 14.4161C50.8456 14.5234 50.9798 14.6308 51.1409 14.7114C51.0604 15.4362 51.2214 16.1342 51.7046 16.6979C52.3758 17.557 53.5301 17.8255 54.5234 17.4228C55.0335 17.2349 55.5704 16.9396 55.8389 16.4295C56.0805 15.8926 56.1073 15.3288 56.0268 14.7651C55.9463 14.1476 55.6778 13.557 55.302 13.0738C54.8993 12.5637 54.3355 12.4832 53.7986 12.2147C53.2348 11.9194 52.7248 11.5704 52.3221 11.0872C52.1073 10.8456 51.9731 10.5503 51.8389 10.255C57.7986 10.255 63.7583 10.2281 69.7181 10.1744C69.8254 10.604 69.9597 11.0335 70.1208 11.4362C70.604 12.6174 71.3825 13.6375 72.3758 14.4161C72.5369 14.5234 72.6711 14.6308 72.8322 14.7114C72.7516 15.4362 72.9395 16.1342 73.3959 16.6979C74.0671 17.557 75.2214 17.8255 76.2147 17.4228C76.7516 17.2349 77.2617 16.9396 77.5301 16.4295C77.7986 15.8926 77.8254 15.3288 77.7449 14.7651C77.6375 14.1476 77.3691 13.557 76.9932 13.0738C76.6174 12.5637 76.0536 12.4832 75.4899 12.2147C74.953 11.9194 74.4161 11.5704 74.0134 11.0872C73.7986 10.8187 73.6375 10.4966 73.5033 10.1476C79.6509 10.1208 85.8254 10.0402 91.9731 9.95969C92.0805 10.4698 92.2416 10.953 92.4295 11.4362C92.8858 12.6174 93.6644 13.6375 94.6845 14.4161C94.8187 14.5234 94.9798 14.6308 95.1409 14.7114C95.0603 15.4362 95.2214 16.1342 95.7046 16.6979C96.3758 17.557 97.5301 17.8255 98.5234 17.4228C99.0335 17.2349 99.5704 16.9396 99.8389 16.4295C100.08 15.8926 100.107 15.3288 100.027 14.7651C99.9463 14.1476 99.6778 13.557 99.302 13.0738C98.8993 12.5637 98.3355 12.4832 97.7986 12.2147C97.2348 11.9194 96.7248 11.5704 96.3221 11.0872C96.0268 10.7651 95.8389 10.3355 95.7046 9.90599C102.336 9.79861 108.993 9.69123 115.624 9.53015C115.544 20.5369 113.638 31.3825 110.765 41.9865C109.584 46.3355 108.107 51.2751 103.436 52.9664C101.262 53.7718 98.8993 53.8523 96.5905 53.6912C94.9261 53.5838 93.2348 53.4496 91.6241 53.0201C90.5234 52.7248 87.3557 50.6845 86.604 52.3758C82.2013 62.4429 69.9328 66.0402 59.9463 67.3288C47.9731 68.859 35.7046 68 23.6778 67.8389C16.9127 67.7315 10.1744 67.651 3.40934 67.5436ZM33.0738 15.6778C32.9395 16.2953 32.2952 16.7785 31.651 16.7516C31.1946 16.7248 30.1476 16.1073 30.3892 15.5167C31.3288 15.7047 32.1342 15.8657 33.0738 15.6778ZM27.2214 7.32881C27.4093 6.28183 27.7315 5.28854 28.1342 4.3221C28.4832 3.51673 28.8322 2.63083 29.557 2.06707C29.6912 1.95968 29.8523 1.87915 30.0134 1.79861C29.8523 1.87915 29.6644 2.30868 29.5838 2.44291C29.4228 2.68452 29.2885 2.92613 29.1543 3.16774C28.9127 3.67781 28.6979 4.18787 28.51 4.72479C28.161 5.79861 27.9731 6.92613 27.9999 8.08049C27.9999 9.07378 28.1342 9.95969 28.4295 10.9261C28.6442 11.651 28.9664 12.4026 29.4765 12.9664C29.8523 13.3959 30.4966 13.6644 31.0604 13.7181C31.1409 13.7181 31.2214 13.6912 31.3288 13.6644C31.3557 13.6375 31.3825 13.6375 31.4362 13.6375C31.3825 13.6375 31.302 13.6644 31.4093 13.6375C31.4362 13.6375 31.463 13.6375 31.4899 13.6375C31.9731 13.6375 32.4026 13.8255 32.7248 14.1744C32.7248 14.2013 32.7516 14.2013 32.7516 14.2281C32.8053 14.3087 32.8859 14.4161 32.9127 14.4966C32.9395 14.5234 32.9395 14.5234 32.9395 14.5234C32.8322 14.4966 32.7248 14.4966 32.6174 14.4966C32.1342 14.5771 31.6241 14.5771 31.1409 14.4429C30.4429 14.3892 29.7718 13.9597 29.2617 13.5302C28.859 13.2349 28.5369 12.8859 28.2684 12.51C27.5704 11.5167 27.1409 10.1744 27.0872 8.93955C27.0604 8.40264 27.1409 7.86573 27.2214 7.32881ZM31.5167 1.93284C32.4563 2.25499 32.9664 3.19458 33.3154 4.08049C33.7986 5.28854 34.0671 6.52344 34.0671 7.81203C32.4563 7.81203 30.8456 7.83888 29.2348 7.83888C29.2348 7.59727 29.2348 7.3825 29.2617 7.14089C29.4228 5.23485 30.2281 3.3825 31.5167 1.93284ZM33.1812 1.39593C33.6644 1.50331 33.9597 1.8523 34.2281 2.22814C35.463 3.83888 36.1342 5.79861 36.1879 7.81203H35.302C35.302 6.30868 34.953 4.80532 34.3892 3.40935C34.0671 2.68452 33.6107 1.93284 33.0201 1.39593C33.0738 1.39593 33.1275 1.39593 33.1812 1.39593ZM54.765 15.6241C54.5234 16.161 54.0134 16.51 53.2885 16.3221C52.8053 16.1879 52.4832 15.7852 52.3758 15.3288C53.1275 15.5973 53.9328 15.7047 54.765 15.6241ZM49.8523 4.05364C50.3355 3.06036 51.0335 2.09391 52.0268 1.58385C51.4899 2.2013 51.0872 2.92613 50.8187 3.7315C50.3087 5.04693 50.0671 6.52344 50.1476 7.91942C50.2281 9.28854 50.4966 10.7919 51.3557 11.8657C51.6778 12.2416 52.0268 12.5906 52.4295 12.8322C52.6442 12.9396 52.859 13.0469 53.0738 13.1543C53.3154 13.2885 53.5838 13.3959 53.7986 13.5302C54.0939 13.7181 54.4161 13.9328 54.5234 14.2818C54.5234 14.3355 54.5503 14.3624 54.5771 14.4161C53.906 14.4966 53.2348 14.3892 52.6174 14.1208C52.6174 14.1208 52.6174 14.1208 52.6442 14.1208C52.5906 14.1744 52.1073 13.8791 52.0536 13.8523C51.0067 13.2617 50.1476 12.2953 49.6644 11.2214C49.1812 10.1476 49.0469 8.85901 48.9932 7.70465C48.9127 6.41606 49.2885 5.20801 49.8523 4.05364ZM53.5301 1.8523C54.3087 2.38921 54.8187 3.22143 55.1409 4.13418C55.5436 5.2617 55.7315 6.46975 55.6778 7.67781C54.255 7.67781 52.8053 7.70465 51.3825 7.70465C51.3288 6.52344 51.5436 5.36908 51.9194 4.24156C52.2416 3.32881 52.7516 2.44291 53.5301 1.8523ZM55.0872 1.42277C55.7852 1.71807 56.3221 2.41606 56.6979 3.00666C57.1275 3.67781 57.4228 4.40264 57.6912 5.15432C57.9865 5.95968 58.2281 6.7919 58.2013 7.65096C57.7718 7.65096 57.3422 7.67781 56.9127 7.67781C56.9664 6.28183 56.7248 4.85901 56.2416 3.57042C55.9463 2.73821 55.463 1.95968 54.8456 1.34223C54.9261 1.36908 55.0067 1.39593 55.0872 1.42277ZM76.4563 15.6241C76.2416 16.161 75.7046 16.51 74.9798 16.3221C74.4966 16.1879 74.1744 15.7852 74.0671 15.3288C74.8187 15.5973 75.6509 15.7047 76.4563 15.6241ZM71.5436 4.05364C72.0536 3.06036 72.7516 2.09391 73.7449 1.58385C73.1812 2.2013 72.8053 2.92613 72.51 3.7315C72.0268 5.04693 71.7583 6.52344 71.8389 7.91942C71.9194 9.28854 72.1879 10.7919 73.0738 11.8657C73.3691 12.2416 73.7181 12.5906 74.1476 12.8322C74.3624 12.9396 74.5771 13.0469 74.7919 13.1543C75.0335 13.2885 75.2751 13.3959 75.5167 13.5302C75.812 13.7181 76.1073 13.9328 76.2147 14.2818C76.2416 14.3355 76.2416 14.3624 76.2684 14.4161C75.5973 14.4966 74.9261 14.3892 74.3087 14.1208C74.3355 14.1208 74.3355 14.1208 74.3355 14.1208C74.3087 14.1744 73.7986 13.8791 73.7449 13.8523C72.7248 13.2617 71.8657 12.2953 71.3557 11.2214C70.8724 10.1476 70.7382 8.85901 70.6845 7.70465C70.6308 6.41606 71.0067 5.20801 71.5436 4.05364ZM75.2214 1.8523C76.0268 2.38921 76.5369 3.22143 76.8322 4.13418C77.208 5.23485 77.3959 6.38921 77.3691 7.54358C75.9463 7.54358 74.4966 7.57042 73.0738 7.57042C73.0469 6.44291 73.2617 5.31539 73.6375 4.24156C73.9328 3.32881 74.4429 2.44291 75.2214 1.8523ZM76.8053 1.42277C77.4765 1.71807 78.0134 2.41606 78.3892 3.00666C78.8187 3.67781 79.114 4.40264 79.3825 5.15432C79.6509 5.90599 79.8926 6.71136 79.9194 7.51673C79.4899 7.51673 79.0603 7.51673 78.604 7.54358C78.6577 6.2013 78.4161 4.83217 77.9597 3.57042C77.6375 2.73821 77.1812 1.95968 76.5369 1.34223C76.6442 1.36908 76.7248 1.39593 76.8053 1.42277ZM98.765 15.6241C98.5234 16.161 98.0134 16.51 97.2885 16.3221C96.7785 16.1879 96.4832 15.7852 96.3758 15.3288C97.1275 15.5973 97.9328 15.7047 98.765 15.6241ZM93.8523 4.05364C94.3355 3.06036 95.0335 2.09391 96.0268 1.58385C95.4899 2.2013 95.0872 2.92613 94.7919 3.7315C94.3087 5.04693 94.0671 6.52344 94.1476 7.91942C94.2281 9.28854 94.4966 10.7919 95.3557 11.8657C95.6778 12.2416 96.0268 12.5906 96.4295 12.8322C96.6442 12.9396 96.859 13.0469 97.0738 13.1543C97.3154 13.2885 97.5838 13.3959 97.7986 13.5302C98.0939 13.7181 98.4161 13.9328 98.5234 14.2818C98.5234 14.3355 98.5503 14.3624 98.5771 14.4161C97.906 14.4966 97.2348 14.3892 96.6174 14.1208C96.5905 14.1744 96.1073 13.8791 96.0536 13.8523C95.0067 13.2617 94.1476 12.2953 93.6644 11.2214C93.1812 10.1476 93.0469 8.85901 92.9932 7.70465C92.9127 6.41606 93.2885 5.20801 93.8523 4.05364ZM97.5301 1.8523C98.3087 2.38921 98.8187 3.22143 99.1409 4.13418C99.4899 5.18116 99.7046 6.28183 99.6778 7.40935C98.255 7.40935 96.8053 7.40935 95.3557 7.43619C95.3557 6.33552 95.5704 5.2617 95.9194 4.24156C96.2416 3.32881 96.7516 2.44291 97.5301 1.8523ZM99.0872 1.42277C99.7852 1.71807 100.322 2.41606 100.698 3.00666C101.127 3.67781 101.423 4.40264 101.691 5.15432C101.933 5.87915 102.174 6.60398 102.201 7.3825C101.772 7.3825 101.342 7.3825 100.913 7.3825C100.94 6.09391 100.698 4.77848 100.242 3.57042C99.9194 2.73821 99.463 1.95968 98.8456 1.34223C98.9261 1.36908 99.0067 1.39593 99.0872 1.42277ZM120.591 11.1677C120.564 11.1677 120.564 11.1409 120.564 11.114C120.027 9.36908 118.711 7.75834 116.913 7.40935C116.403 7.30197 115.866 7.30197 115.329 7.30197L103.436 7.3825C103.409 6.46975 103.168 5.61069 102.846 4.75163C102.55 3.86572 102.174 2.97982 101.638 2.2013C101.02 1.2617 100.134 0.348946 98.953 0.134181C98.3624 0.0267987 97.6912 0.107336 97.0738 0.134181C96.4026 0.161027 95.7583 0.295255 95.1946 0.644248C94.3087 1.18116 93.6107 1.95968 93.1006 2.84559C92.2952 4.21472 91.8389 5.82546 91.7852 7.43619C88.2416 7.46304 84.6979 7.48989 81.1543 7.51673C81.1275 6.57713 80.8858 5.63754 80.5637 4.75163C80.2416 3.86572 79.8657 2.97982 79.3557 2.2013C78.7114 1.2617 77.8254 0.348946 76.6711 0.134181C76.0536 0.0267987 75.3825 0.107336 74.7919 0.134181C74.1208 0.161027 73.4765 0.295255 72.8858 0.644248C72.0268 1.18116 71.3288 1.95968 70.7919 2.84559C69.9865 4.24156 69.5033 5.90599 69.4765 7.59727C66.1208 7.62411 62.7919 7.62411 59.4362 7.65096C59.463 6.65767 59.1946 5.69123 58.8724 4.75163C58.5503 3.86572 58.1744 2.97982 57.6375 2.2013C57.0201 1.2617 56.1342 0.348946 54.9798 0.134181C54.3624 0.0267987 53.6912 0.107336 53.1006 0.134181C52.4026 0.161027 51.7583 0.295255 51.1946 0.644248C50.3087 1.18116 49.6107 1.95968 49.1006 2.84559C48.2416 4.29526 47.7852 6.01338 47.7583 7.7315C44.3221 7.75834 40.8859 7.75834 37.4228 7.78519C37.3691 5.66438 36.6979 3.57042 35.463 1.82546C35.1409 1.36908 34.7919 0.885859 34.3087 0.563711C33.2348 -0.214812 31.7046 -0.0805839 30.4966 0.295255C27.9194 1.07378 26.765 3.86572 26.2013 6.25499C26.0671 6.7919 25.9865 7.32881 25.9328 7.86573L19.463 7.91942C17.2617 7.91942 15.5436 7.59727 15.4093 10.0671C15.2483 12.5637 15.2751 15.0872 15.114 17.6107C14.765 22.6308 14.0939 27.6241 13.1275 32.5637C11.2214 42.4429 8.08048 52.0805 3.81203 61.208C2.71136 63.5704 1.53015 65.906 0.268404 68.2147C0.10733 68.51 -0.0537441 68.8322 0.0267928 69.1543C0.134175 69.7449 0.912699 69.8792 1.53015 69.906C3.6778 69.9865 5.82545 70.0402 7.9731 70.0939C7.9731 70.0939 7.9731 70.1208 7.9731 70.1476C7.94626 70.1745 7.94626 70.2281 7.94626 70.2818L7.35565 72.4563C7.24827 72.859 7.54357 73.2349 7.94626 73.2349C8.59055 73.2617 9.23485 73.2617 9.8523 73.2617C9.8523 73.2885 9.8523 73.3154 9.8523 73.3422C9.82545 73.8255 9.8523 74.3087 9.82545 74.7919C9.7986 75.1409 10.0671 75.463 10.4161 75.463C10.7114 75.463 10.9798 75.463 11.2751 75.463C11.4899 75.463 11.7046 75.4362 11.9194 75.463C12.1342 75.4899 12.1879 75.6241 12.3221 75.7583C12.4295 75.8657 12.5369 75.9731 12.6442 76.0536C12.859 76.2416 13.1006 76.4295 13.3422 76.6174C13.7986 76.9664 14.2281 77.3154 14.6845 77.6644C15.1677 78.0402 15.6241 78.4161 16.1073 78.7919C16.4026 79.0335 16.8053 79.0067 17.1543 78.953C17.8523 78.8724 18.5503 78.9261 19.2483 78.9261C20.51 78.9261 21.7718 78.953 23.0335 78.953C25.557 78.9798 28.0805 79.0067 30.604 79.0335L45.7449 79.1946C49.1006 79.2483 52.4295 79.2751 55.7583 79.302C68.5369 79.4362 81.3422 79.5704 94.1208 79.7047C94.8724 79.7315 95.651 79.7315 96.4026 79.7315C98.2013 79.7583 99.9999 79.7852 101.772 79.7852C103.919 79.812 106.067 79.8389 108.215 79.8657C109.987 79.8926 111.785 79.8926 113.584 79.9194C114.336 79.9194 115.087 80.0805 115.839 79.9463C116.832 79.7583 116.886 78.9261 116.94 78.0671C116.966 77.557 117.02 77.0469 117.047 76.5637C117.101 75.5436 117.181 74.5234 117.235 73.5302C117.369 71.4899 117.503 69.4765 117.611 67.463L118.389 55.3288C118.658 51.302 118.926 47.2483 119.168 43.2214L119.946 31.0872C120.215 27.0604 120.483 23.0067 120.725 18.9798L120.886 16.6711C120.993 14.8187 121.127 12.9396 120.591 11.1677ZM28.0805 44.1879C26.765 44.161 25.4765 44.161 24.161 44.161C23.5167 44.161 22.8993 44.161 22.255 44.161H21.3422C21.1812 44.161 21.0201 44.161 20.8859 44.161H20.859C20.859 44.1342 20.8859 44.1073 20.8859 44.0805C20.9127 43.9194 20.9395 43.7852 20.9664 43.6241C21.0201 43.2483 21.1006 42.8724 21.1543 42.4966C21.2885 41.7986 21.4228 41.0738 21.557 40.3489C21.6107 40.0268 21.4496 39.6778 21.1006 39.5704C20.8053 39.4899 20.4026 39.6778 20.3489 40.0268C20.161 41.1543 19.9463 42.3087 19.7583 43.4362C19.651 43.9194 19.4093 44.5906 19.6778 45.0201C19.9463 45.5033 20.6442 45.3959 21.1006 45.3959C23.4362 45.3959 25.7449 45.3959 28.0805 45.4228C28.859 45.4228 28.859 44.1879 28.0805 44.1879ZM80.5905 54.5234C79.2483 54.604 77.9328 54.6308 76.6174 54.6577C75.9463 54.6577 75.2751 54.6577 74.6308 54.6577C74.3087 54.6577 74.0134 54.6577 73.6912 54.6308C73.5301 54.6308 73.3422 54.6577 73.1543 54.6577C73.1543 54.5771 73.1543 54.4966 73.1543 54.4161C73.1543 54.2281 73.1543 54.0402 73.1543 53.8255C73.1543 53.4228 73.1812 53.0469 73.2348 52.6442C73.2885 51.8389 73.4228 51.0604 73.6107 50.2818C73.7718 49.5302 72.5905 49.1812 72.4026 49.9597C72.161 51.1409 71.9731 52.3221 71.9194 53.5302C71.8926 54.0402 71.812 54.7114 71.9463 55.2214C72.1342 55.812 72.7248 55.8657 73.2348 55.8657C75.6778 55.9194 78.1476 55.8926 80.5905 55.7583C81.3691 55.7047 81.3691 54.4698 80.5905 54.5234ZM67.0872 55.114C65.7718 55.1946 64.4563 55.2214 63.114 55.2483C62.4429 55.2483 61.7986 55.2483 61.1275 55.2483C60.8322 55.2483 60.51 55.2483 60.2147 55.2214C60.0536 55.2214 59.8389 55.2483 59.651 55.2483C59.651 55.1677 59.651 55.0872 59.651 55.0067C59.651 54.8187 59.651 54.6308 59.651 54.4161C59.6778 54.0134 59.7046 53.6375 59.7315 53.2349C59.812 52.4295 59.9463 51.651 60.1073 50.8993C60.2684 50.1208 59.0872 49.7718 58.9261 50.5503C58.6577 51.7315 58.4966 52.9127 58.4429 54.1208C58.4161 54.6308 58.3087 55.302 58.4697 55.812C58.6308 56.4026 59.2214 56.4563 59.7583 56.4563C62.2013 56.51 64.6442 56.4832 67.0872 56.3489C67.8926 56.2953 67.8926 55.0604 67.0872 55.114ZM53.7181 55.1677C51.6241 55.3288 49.5301 55.463 47.4362 55.5167C47.1946 55.5167 46.9261 55.5167 46.6845 55.5167C46.604 55.5167 46.4966 55.5167 46.4161 55.5167C46.4161 55.463 46.4161 55.3825 46.4161 55.3557C46.4429 55.1946 46.4697 55.0335 46.4697 54.8993L46.5503 54.1476C46.6845 53.1006 46.7919 52.0536 46.9261 51.0067C46.953 50.6845 46.604 50.3892 46.3087 50.3892C45.9328 50.3892 45.7181 50.6845 45.6912 51.0067C45.557 52.2147 45.4228 53.3959 45.2617 54.604C45.208 55.0872 45.0469 55.6778 45.2348 56.161C45.4765 56.6979 45.9865 56.7785 46.5234 56.7516C48.9127 56.7248 51.3288 56.5906 53.7181 56.4026C54.4966 56.3221 54.4966 55.0872 53.7181 55.1677ZM40.9664 55.1946L37.4765 55.2214L35.7852 55.2483C35.4899 55.2483 35.1946 55.2483 34.9261 55.2483C34.7919 55.2483 34.604 55.2751 34.4161 55.2751C34.4429 55.2483 34.4429 55.1946 34.4429 55.1677C34.4429 54.9798 34.4697 54.7919 34.4966 54.604C34.5234 54.255 34.5771 53.906 34.604 53.557C34.7114 52.859 34.8187 52.1342 34.9798 51.4362C35.114 50.6577 33.9328 50.3355 33.7718 51.114C33.557 52.161 33.3959 53.2349 33.2885 54.3087C33.2348 54.7919 33.1006 55.3557 33.208 55.8389C33.3691 56.4295 33.8791 56.51 34.4161 56.51C36.6174 56.4832 38.7919 56.4563 40.9664 56.4295C41.7718 56.4295 41.7718 55.1946 40.9664 55.1946ZM27.0335 55.2751C25.7449 55.2751 24.4563 55.2751 23.1409 55.2483C22.4966 55.2483 21.8523 55.2483 21.2348 55.2483C20.9127 55.2483 20.6174 55.2483 20.2952 55.2483C20.161 55.2483 19.9999 55.2483 19.8389 55.2483C19.8389 55.2214 19.8657 55.1946 19.8657 55.1677C19.8926 55.0067 19.9194 54.8724 19.9463 54.7114C19.9999 54.3355 20.0805 53.9865 20.1342 53.6107C20.2684 52.8859 20.4026 52.161 20.51 51.4362C20.5637 51.114 20.4295 50.7651 20.0805 50.6845C19.7852 50.604 19.3825 50.7651 19.3288 51.114C19.114 52.2416 18.9261 53.3959 18.7114 54.5503C18.6308 55.0067 18.3892 55.6778 18.6308 56.1073C18.9261 56.5906 19.6241 56.4832 20.0805 56.4832C22.3892 56.4832 24.7248 56.51 27.0335 56.51C27.8389 56.51 27.8389 55.2751 27.0335 55.2751ZM80.3758 44.0268C79.0603 44.0805 77.7181 44.1342 76.4026 44.161C75.7315 44.161 75.0603 44.161 74.4161 44.161C74.0939 44.161 73.7986 44.1342 73.5033 44.1342C73.3154 44.1342 73.1275 44.161 72.9395 44.1342C72.9395 44.0805 72.9395 44 72.9395 43.9194C72.9395 43.7315 72.9395 43.5167 72.9395 43.3288C72.9664 42.9261 72.9932 42.5234 73.0201 42.1476C73.1006 41.3422 73.208 40.5637 73.3959 39.7852C73.557 39.0067 72.3758 38.6845 72.1879 39.463C71.9463 40.6442 71.7852 41.8255 71.7315 43.0335C71.7046 43.5436 71.5973 44.2147 71.7583 44.6979C71.9194 45.3154 72.51 45.3422 73.0469 45.3691C75.4899 45.4228 77.9328 45.3959 80.3758 45.2617C81.1543 45.208 81.1812 43.9731 80.3758 44.0268ZM66.9798 44.0805C64.9127 44.2416 62.8187 44.3758 60.7248 44.4295C60.4563 44.4295 60.2147 44.4295 59.9463 44.4295C59.8926 44.4295 59.7852 44.4295 59.7046 44.4295C59.7046 44.3489 59.7046 44.2953 59.7046 44.2416C59.7315 44.1073 59.7315 43.9463 59.7583 43.812L59.8389 43.0604C59.9463 42.0134 60.0805 40.9664 60.1879 39.9194C60.2416 39.5973 59.8926 39.302 59.5704 39.302C59.2214 39.302 59.0067 39.5973 58.953 39.9194L58.5503 43.5167C58.4966 44 58.3355 44.5906 58.5234 45.0469C58.7382 45.6107 59.2751 45.6912 59.812 45.6644C62.2013 45.6375 64.5905 45.5033 66.9798 45.3154C67.7852 45.2349 67.7852 44 66.9798 44.0805ZM54.255 44.1073L50.765 44.1342L49.0469 44.161C48.7785 44.161 48.4832 44.161 48.2147 44.161C48.0536 44.161 47.8926 44.1879 47.7046 44.1879C47.7046 44.161 47.7046 44.1073 47.7046 44.0536C47.7315 43.8926 47.7583 43.7047 47.7583 43.5167C47.812 43.1677 47.8389 42.8187 47.8926 42.4698C47.9999 41.7718 48.1073 41.0469 48.2416 40.3489C48.4026 39.5704 47.2214 39.2214 47.0604 40C46.8456 41.0738 46.6845 42.1476 46.5771 43.2214C46.5234 43.7047 46.3624 44.2684 46.4966 44.7248C46.6577 45.3422 47.1677 45.4228 47.7046 45.3959L54.255 45.3422C55.0335 45.3422 55.0335 44.1073 54.255 44.1073ZM40.3221 44.1879C39.0335 44.161 37.7181 44.161 36.4295 44.161C35.7852 44.161 35.1409 44.161 34.4966 44.161C34.2013 44.161 33.906 44.161 33.5838 44.161C33.4228 44.161 33.2885 44.161 33.1275 44.161C33.1275 44.1342 33.1275 44.1073 33.1275 44.0805L33.208 43.6241C33.2885 43.2483 33.3422 42.8724 33.4228 42.4966C33.557 41.7986 33.6644 41.0738 33.7986 40.3489C33.8523 40.0268 33.7181 39.6778 33.3691 39.5704C33.0738 39.4899 32.6711 39.6778 32.6174 40.0268C32.4026 41.1543 32.2147 42.3087 31.9999 43.4362C31.9194 43.9194 31.651 44.5906 31.9194 45.0201C32.2147 45.5033 32.8859 45.3959 33.3691 45.3959C35.6778 45.3959 38.0134 45.3959 40.3221 45.4228C41.1275 45.4228 41.1275 44.1879 40.3221 44.1879ZM95.812 33.3691C94.4966 33.4228 93.1543 33.4765 91.8389 33.5033C91.1677 33.5033 90.5234 33.5033 89.8523 33.5033C89.557 33.5033 89.2348 33.4765 88.9395 33.4765C88.7785 33.4765 88.5637 33.5033 88.3758 33.4765C88.3758 33.4228 88.3758 33.3422 88.3758 33.2617C88.3758 33.0738 88.3758 32.859 88.3758 32.6711C88.4026 32.2684 88.4295 31.8657 88.4563 31.4899C88.5369 30.6845 88.6711 29.906 88.8322 29.1275C88.9932 28.3489 87.812 28.0268 87.651 28.8053C87.3825 29.9865 87.2214 31.1677 87.1677 32.3758C87.1409 32.8859 87.0335 33.557 87.1946 34.0402C87.3557 34.6577 87.9463 34.6845 88.4832 34.7114C90.9261 34.7651 93.3691 34.7382 95.812 34.604C96.6174 34.5503 96.6174 33.3154 95.812 33.3691ZM82.4429 33.4228C80.3489 33.5838 78.255 33.7181 76.161 33.7718C75.9194 33.7718 75.6509 33.7718 75.4093 33.7718C75.3288 33.7718 75.2214 33.7718 75.1409 33.7718C75.1409 33.6912 75.1409 33.6375 75.1409 33.5838C75.1677 33.4496 75.1677 33.2885 75.1946 33.1543L75.2751 32.4026C75.4093 31.3557 75.5167 30.3087 75.6509 29.2617C75.6778 28.9396 75.3288 28.6442 75.0335 28.6442C74.6577 28.6442 74.4429 28.9396 74.4161 29.2617C74.2818 30.4429 74.1208 31.651 73.9865 32.859C73.9328 33.3422 73.7718 33.9328 73.9597 34.3892C74.2013 34.953 74.7114 35.0335 75.2483 35.0067C77.6375 34.9798 80.0536 34.8456 82.4429 34.6577C83.2214 34.5771 83.2214 33.3422 82.4429 33.4228ZM69.6912 33.4496L66.2013 33.4765L64.51 33.5033C64.2147 33.5033 63.9194 33.5033 63.651 33.5033C63.5167 33.5033 63.3288 33.5302 63.1409 33.5302C63.1409 33.5033 63.1677 33.4496 63.1677 33.3959C63.1677 33.2349 63.1946 33.0469 63.2214 32.859C63.2483 32.51 63.302 32.161 63.3288 31.812C63.4362 31.114 63.5436 30.3892 63.7046 29.6912C63.8389 28.9127 62.6577 28.5637 62.4966 29.3422C62.2818 30.4161 62.1208 31.4899 62.0134 32.5637C61.9597 33.0469 61.7986 33.6107 61.9328 34.0671C62.0939 34.6845 62.604 34.7651 63.1409 34.7382C65.3154 34.7382 67.5167 34.7114 69.6912 34.6845C70.4966 34.6845 70.4966 33.4496 69.6912 33.4496ZM55.7583 33.5302C54.4697 33.5033 53.1543 33.5033 51.8657 33.5033C51.2214 33.5033 50.5771 33.5033 49.9597 33.5033C49.6375 33.5033 49.3422 33.5033 49.0201 33.5033C48.8859 33.5033 48.7248 33.5033 48.5637 33.5033C48.5637 33.4765 48.5906 33.4496 48.5906 33.4228C48.6174 33.2617 48.6442 33.1275 48.6711 32.9664C48.7248 32.5906 48.8053 32.2147 48.859 31.8389C48.9932 31.1409 49.1275 30.4161 49.2348 29.6912C49.2885 29.3691 49.1543 29.0201 48.8053 28.9127C48.51 28.8322 48.1073 29.0201 48.0536 29.3691C47.8389 30.4966 47.651 31.651 47.4362 32.7785C47.3557 33.2617 47.114 33.9328 47.3557 34.3624C47.651 34.8456 48.3221 34.7382 48.8053 34.7382C51.114 34.7382 53.4496 34.7382 55.7583 34.7651C56.5637 34.7651 56.5637 33.5302 55.7583 33.5302ZM94.953 44.0268C93.6375 44.0805 92.2952 44.1342 90.9798 44.161C90.3087 44.161 89.6644 44.161 88.9932 44.161C88.6711 44.161 88.3758 44.1342 88.0805 44.1342C87.9194 44.1342 87.7046 44.161 87.5167 44.1342C87.5167 44.0805 87.5167 44 87.5167 43.9194C87.5167 43.7315 87.5167 43.5167 87.5167 43.3288C87.5436 42.9261 87.5704 42.5234 87.5973 42.1476C87.6778 41.3422 87.812 40.5637 87.9731 39.7852C88.1342 39.0067 86.953 38.6845 86.7919 39.463C86.5234 40.6442 86.3624 41.8255 86.3087 43.0335C86.2818 43.5436 86.1744 44.2147 86.3355 44.6979C86.4966 45.3154 87.0872 45.3422 87.6241 45.3691C90.0671 45.4228 92.51 45.3959 94.953 45.2617C95.7315 45.208 95.7583 43.9731 94.953 44.0268Z" fill="#F2B72F"/>
</g>
<defs>
<clipPath id="clip0_47_173">
<rect width="121" height="83" fill="white"/>
</clipPath>
</defs>
</svg>
