<svg width="30" height="30" viewBox="0 0 30 30" fill="none" xmlns="http://www.w3.org/2000/svg">
<path fill-rule="evenodd" clip-rule="evenodd" d="M30 15C30 6.71638 23.2835 0 15 0C6.71638 0 0 6.71638 0 15C0 22.4862 5.48452 28.6921 12.6565 29.8188V19.337H8.84685V15H12.6565V11.6945C12.6565 7.93552 14.8966 5.85777 18.3223 5.85777C19.9634 5.85777 21.6804 6.15096 21.6804 6.15096V9.84248H19.7883C17.9258 9.84248 17.3435 10.9984 17.3435 12.186V14.9999H21.5031L20.8387 19.3369H17.3434V29.8185C24.5154 28.6942 29.9998 22.4883 29.9998 14.9999L30 15Z" fill="#222021"/>
<path fill-rule="evenodd" clip-rule="evenodd" d="M20.8387 19.3368L21.5033 14.9998H17.3436V12.1859C17.3436 11.0004 17.9237 9.8424 19.7884 9.8424H21.6806V6.15087C21.6806 6.15087 19.9636 5.85767 18.3224 5.85767C14.8967 5.85767 12.6566 7.93337 12.6566 11.6944V14.9999H8.84692V19.3369H12.6566V29.8187C13.4201 29.9387 14.2027 29.9999 15.0001 29.9999C15.7974 29.9999 16.58 29.9366 17.3436 29.8187V19.3369H20.8389L20.8387 19.3368Z" fill="#FEFEFE"/>
</svg>
