<svg width="20" height="20" viewBox="0 0 20 20" fill="none" xmlns="http://www.w3.org/2000/svg">
<path fill-rule="evenodd" clip-rule="evenodd" d="M20 10C20 4.47758 15.5224 0 10 0C4.47758 0 0 4.47758 0 10C0 14.9908 3.65635 19.1281 8.43765 19.8792V12.8913H5.8979V10H8.43765V7.79635C8.43765 5.29035 9.9311 3.90518 12.2149 3.90518C13.3089 3.90518 14.4536 4.10064 14.4536 4.10064V6.56165H13.1922C11.9505 6.56165 11.5623 7.33229 11.5623 8.124V9.99992H14.3354L13.8925 12.8912H11.5623V19.879C16.3436 19.1294 19.9999 14.9922 19.9999 9.99992L20 10Z" fill="#FCFCFC"/>
<path fill-rule="evenodd" clip-rule="evenodd" d="M13.8925 12.8913L14.3355 10H11.5624V8.12411C11.5624 7.33379 11.9491 6.56176 13.1923 6.56176H14.4537V4.10075C14.4537 4.10075 13.3091 3.90527 12.2149 3.90527C9.93116 3.90527 8.43771 5.28908 8.43771 7.79645V10.0001H5.89795V12.8914H8.43771V19.8793C8.94675 19.9593 9.46848 20.0001 10.0001 20.0001C10.5316 20.0001 11.0534 19.9579 11.5624 19.8793V12.8914H13.8926L13.8925 12.8913Z" fill="#0D0D0D"/>
</svg>
