<svg width="92" height="100" viewBox="0 0 92 100" fill="none" xmlns="http://www.w3.org/2000/svg">
<path d="M38.125 34.3749H35V37.4999H38.125V34.3749Z" fill="#F2B72F"/>
<path d="M47.5 34.3749H44.375V37.4999H47.5V34.3749Z" fill="#F2B72F"/>
<path d="M42.8125 43.7499V40.6249C42.4218 40.6249 42.1289 40.3124 42.1289 39.9413C42.1289 39.8632 42.1484 39.785 42.1679 39.7264L42.7343 38.0077L39.7656 37.0116L39.1992 38.7303C38.5351 40.7225 39.6093 42.8905 41.6211 43.5546C41.9921 43.6913 42.4023 43.7499 42.8125 43.7499Z" fill="#F2B72F"/>
<path d="M44.375 45.3124H38.125V48.4374H44.375V45.3124Z" fill="#F2B72F"/>
<path d="M80.3125 65.6249V64.3359L71.0937 62.4999H64.0234L52.1875 58.2812V50.078C54.375 47.7538 55.8593 44.8827 56.5234 41.7773L60.1367 39.9804C62.8125 38.6327 63.9062 35.3905 62.5586 32.6952C61.6406 30.8593 59.7656 29.6874 57.7148 29.6874H56.875C58.8476 28.2226 60 25.8984 60 23.4374V21.8749C60 14.6484 54.5117 8.59367 47.3242 7.89054C46.5039 4.53117 43.1054 2.49992 39.7656 3.32023C37.5 3.8671 35.7422 5.64445 35.1953 7.89054C27.9882 8.59367 22.5 14.6484 22.5 21.8749V23.4374C22.5 25.8984 23.6523 28.2226 25.625 29.6874H24.7851C21.7968 29.6874 19.3554 32.1093 19.3554 35.1171C19.3554 37.1679 20.5078 39.0429 22.3632 39.9609L25.9765 41.7577C26.6211 44.8632 28.125 47.7538 30.3125 50.0585V58.2616L18.125 62.6171C12.2461 64.7069 7.98824 69.8241 6.95309 75.9765L4.37496 91.4062C3.94527 93.9648 5.68356 96.3671 8.22262 96.7968C8.47653 96.8359 8.73043 96.8554 8.98434 96.8554H73.4765C76.0742 96.8554 78.164 94.7655 78.164 92.1679C78.164 91.914 78.1445 91.6601 78.1054 91.4062L75.5273 75.9765C75.4296 75.4101 75.3125 74.8241 75.1562 74.2773L80.2929 71.1913V68.7499H88.1054V65.6249H80.3125ZM56.875 32.8124H57.6953C58.9648 32.8124 60 33.8476 60 35.1171C60 35.996 59.5117 36.7773 58.7304 37.1679L56.875 38.0859V32.8124ZM25.625 38.1054L23.7695 37.1874C22.6367 36.621 22.1679 35.2343 22.7343 34.1015C23.125 33.3202 23.9257 32.832 24.7851 32.832H25.6054V38.1054H25.625ZM60.9375 65.6249H69.375V74.1601L65.7812 76.5624H59.082L58.0664 75.5468C57.3632 74.8437 57.0507 73.8671 57.1875 72.8905L57.8515 68.3007C58.0664 66.7773 59.3945 65.6249 60.9375 65.6249ZM64.414 79.6874L63.3789 85.9374H60V79.6874H64.414ZM25.625 21.8749C25.625 16.4452 29.6289 11.8359 35 11.0546V18.7499H38.125V9.37492C38.125 7.65617 39.5312 6.24992 41.25 6.24992C42.9687 6.24992 44.375 7.65617 44.375 9.37492V18.7499H47.5V11.0546C52.8711 11.8359 56.875 16.4452 56.875 21.8749H25.625ZM25.8984 24.9999H56.6015C55.9375 26.8749 54.1601 28.1249 52.1875 28.1249H30.3125C28.3203 28.1249 26.5625 26.8749 25.8984 24.9999ZM28.75 38.2812V31.0937C29.2578 31.1913 29.7851 31.2499 30.3125 31.2499H52.1875C52.7148 31.2499 53.2421 31.1913 53.75 31.0937V38.2812C53.75 43.828 50.4687 48.8671 45.3906 51.1327L43.1445 52.1288C41.9336 52.6757 40.5468 52.6757 39.3359 52.1288L37.0898 51.1327C32.0312 48.8671 28.75 43.8476 28.75 38.2812ZM35.8203 62.3437C39.3554 63.5155 43.164 63.5155 46.6992 62.3437L50.4492 61.0937C49.6484 64.6483 46.4843 67.1874 42.832 67.1874H39.707C36.0547 67.1874 32.8906 64.6483 32.0898 61.0937L35.8203 62.3437ZM33.4375 58.2421V52.6757C34.1992 53.164 35 53.6132 35.8398 53.9843L38.0859 54.9804C40.0976 55.8788 42.4023 55.8788 44.4336 54.9804L46.6796 53.9843C47.5195 53.6132 48.3203 53.1835 49.082 52.6757V58.2421L45.7226 59.3554C42.832 60.3124 39.707 60.3124 36.8359 59.3554L33.4375 58.2421ZM29.082 62.0312C30.3125 66.8944 34.6679 70.3124 39.6875 70.3124H42.8125C47.832 70.3124 52.1875 66.8944 53.4179 62.0312L57.5586 63.5155C56.0351 64.4921 55.0195 66.0937 54.7656 67.871L54.1015 72.4609C53.9453 73.5937 54.1015 74.746 54.5507 75.8007C54.2773 76.2694 53.75 76.5624 53.2031 76.5624H29.2968C28.6523 76.5624 28.0859 76.1718 27.8515 75.5859L23.2617 64.121L29.082 62.0312ZM17.8125 93.7499H9.00387C8.14449 93.7499 7.44137 93.0468 7.44137 92.1874C7.44137 92.1093 7.44137 92.0116 7.4609 91.9335L10.039 76.5038C10.5273 73.5546 11.9531 70.8398 14.082 68.7499L17.7343 79.7069C17.7929 79.8632 17.8125 80.039 17.8125 80.1952V93.7499ZM54.0234 93.7499H20.9375V80.1952C20.9375 79.6874 20.8593 79.1991 20.7031 78.7109L16.7187 66.7382C17.5 66.2694 18.3203 65.8788 19.1797 65.5663L20.332 65.1562L24.9609 76.7382C25.664 78.5155 27.4023 79.6874 29.3164 79.6874H53.2031C54.4336 79.6874 55.6054 79.2187 56.4648 78.3593L56.875 78.7694V85.9374H25.625V89.0624H54.7265C54.1015 89.8827 53.75 90.8788 53.75 91.914V92.1874C53.75 92.7148 53.8476 93.2421 54.0234 93.7499ZM66.25 92.1874C66.25 93.0468 65.5468 93.7499 64.6875 93.7499H58.4375C57.5781 93.7499 56.875 93.0468 56.875 92.1874V91.914C56.875 91.5038 57.0312 91.0937 57.3242 90.8007L59.082 89.0429H64.0429L65.8007 90.8007C66.0937 91.0937 66.25 91.4843 66.25 91.914V92.1874ZM74.6875 93.203C74.3945 93.5546 73.9648 93.7499 73.4961 93.7499H69.1015C69.2773 93.2421 69.375 92.7148 69.375 92.1874V91.914C69.375 90.664 68.8867 89.4726 68.0078 88.5937L66.3672 86.953L67.6953 79.0429L71.7968 76.3085L72.3828 75.9569C72.4218 76.1327 72.4609 76.3085 72.4804 76.4843L75.0586 91.914C75.1171 92.3827 75 92.8515 74.6875 93.203ZM77.1875 69.4335L72.5 72.246V65.9765L77.1875 66.914V69.4335Z" fill="#F2B72F"/>
<path d="M63.125 68.7499H60V71.8749H63.125V68.7499Z" fill="#F2B72F"/>
</svg>
