<svg width="20" height="20" viewBox="0 0 20 20" fill="none" xmlns="http://www.w3.org/2000/svg">
<path d="M10.0088 4.90486C9.83292 4.90486 9.65896 4.91383 9.48757 4.93138C9.31618 4.94894 9.14715 4.97495 8.98101 5.00909C8.81487 5.04324 8.65168 5.08554 8.49176 5.13545L8.02236 5.3078L7.57546 5.52359L7.15373 5.7802L6.75969 6.07494L6.39608 6.40523L6.06547 6.76852L5.77042 7.16212L5.51348 7.58345L5.29757 8.02984C5.23266 8.18252 5.17493 8.33906 5.12496 8.49885C5.07498 8.65865 5.03269 8.82177 4.99847 8.98773C4.96426 9.15367 4.93825 9.32249 4.92062 9.49377C4.90301 9.66504 4.89417 9.8388 4.89417 10.0145C4.89417 10.1902 4.90314 10.3639 4.92062 10.5352C4.93803 10.7051 4.964 10.874 4.99847 11.0413C5.03269 11.2079 5.07498 11.3704 5.12496 11.5302C5.17493 11.69 5.2326 11.8464 5.29757 11.9992L5.51348 12.4456L5.77042 12.8668L6.06547 13.2605L6.39608 13.6238L6.75969 13.9541L7.15373 14.2489L7.57546 14.5054L8.02236 14.7212L8.49176 14.8936L8.98101 15.02C9.14844 15.0544 9.31751 15.0804 9.48757 15.0977C9.66075 15.1154 9.83472 15.1243 10.0088 15.1241C10.1847 15.1241 10.3586 15.1152 10.53 15.0977C10.7 15.0804 10.8691 15.0544 11.0365 15.02L11.5258 14.8936L11.9952 14.7212L12.4421 14.5054L12.8638 14.2489L13.2579 13.9541L13.6216 13.6238L13.9522 13.2605L14.2472 12.8668L14.5042 12.4456L14.7202 11.9992L14.8927 11.5302C14.9427 11.3704 14.985 11.2072 15.0192 11.0413L15.097 10.5351C15.1146 10.3639 15.1235 10.1901 15.1235 10.0144C15.1235 9.83873 15.1146 9.66497 15.097 9.4937C15.0796 9.32381 15.0536 9.15492 15.0192 8.98766C14.985 8.82108 14.9427 8.65865 14.8927 8.49879L14.7202 8.02979L14.5042 7.58338L14.2472 7.16205L13.9522 6.76845L13.6216 6.40516L13.2579 6.07487L12.8638 5.78015L12.4421 5.52354L11.9952 5.30774L11.5258 5.13538L11.0365 5.00904L10.53 4.93131C10.3568 4.91363 10.1828 4.90484 10.0088 4.90486ZM10.0088 6.66851C10.1251 6.66851 10.2398 6.67427 10.3529 6.68567L10.686 6.7361L11.0079 6.8181L11.3161 6.93005L11.6091 7.07037L11.8846 7.23727L12.1421 7.4293L12.3796 7.6447L12.5952 7.8819L12.7874 8.13922L12.9545 8.41511L13.0948 8.70792C13.137 8.80813 13.1744 8.91084 13.207 9.01585C13.2395 9.12087 13.2669 9.22819 13.289 9.33749C13.3111 9.4468 13.3274 9.55804 13.3394 9.67099L13.3566 10.0148C13.3566 10.131 13.3508 10.2456 13.3394 10.3587C13.328 10.4717 13.3112 10.5829 13.289 10.6922C13.2667 10.8014 13.2393 10.9087 13.207 11.0138L13.0948 11.3217L12.9545 11.6145L12.7874 11.8904L12.5952 12.1478L12.3796 12.385L12.1421 12.6004L11.8846 12.7924L11.6091 12.9593L11.3161 13.0996L11.0079 13.2115L10.686 13.2936L10.3529 13.3439C10.2385 13.3554 10.1237 13.3611 10.0087 13.3611C9.89378 13.3611 9.7789 13.3554 9.66454 13.3439L9.33136 13.2936C9.22198 13.2714 9.1146 13.244 9.00946 13.2115L8.70128 13.0996L8.40828 12.9593L8.13276 12.7924L7.87519 12.6004L7.63773 12.385L7.42214 12.1478L7.22992 11.8904L7.06282 11.6145L6.9225 11.3217L6.81037 11.0138L6.72836 10.6922L6.67794 10.3587C6.66647 10.2444 6.66073 10.1296 6.66076 10.0148C6.66073 9.89998 6.66647 9.78523 6.67794 9.67099C6.68928 9.55804 6.70612 9.44673 6.72836 9.33749C6.75037 9.22901 6.77776 9.12168 6.81044 9.01591L6.92257 8.70798L7.06289 8.41517L7.22998 8.13929L7.42219 7.88197L7.6378 7.64477L7.87525 7.42936L8.13282 7.23734L8.40833 7.07042L8.70133 6.9301C8.80218 6.88776 8.90507 6.8504 9.00958 6.81817L9.33148 6.73616C9.44086 6.71399 9.55222 6.69708 9.66467 6.68574C9.77904 6.67429 9.89385 6.66849 10.0088 6.66851Z" fill="#FCFCFC"/>
<path d="M15.3308 3.45117C15.2903 3.45117 15.2497 3.45323 15.2093 3.45732C15.1689 3.46141 15.1287 3.46752 15.0889 3.47564C15.0492 3.48377 15.0097 3.49388 14.971 3.50595C14.9321 3.51803 14.894 3.53206 14.8565 3.54798C14.8192 3.56392 14.7826 3.58174 14.7469 3.60135C14.7112 3.62094 14.6767 3.6423 14.6432 3.66537C14.6096 3.68845 14.5772 3.71321 14.5462 3.73956C14.5151 3.76588 14.4854 3.79374 14.4571 3.82305C14.4289 3.85237 14.4021 3.8831 14.3768 3.91512C14.3515 3.94714 14.3279 3.98041 14.306 4.01481C14.284 4.04919 14.2639 4.08464 14.2454 4.12105C14.2271 4.15748 14.2104 4.19481 14.1957 4.23292C14.181 4.27101 14.1682 4.30982 14.1572 4.3492C14.1464 4.38859 14.1375 4.42849 14.1307 4.46877C14.1237 4.50903 14.1189 4.54962 14.116 4.59038C14.1139 4.61924 14.1129 4.64819 14.1129 4.67713C14.1129 4.71802 14.1149 4.75888 14.119 4.79957C14.1231 4.84024 14.1292 4.88067 14.1372 4.92073C14.1453 4.96078 14.1553 5.00041 14.1672 5.03945C14.1793 5.07851 14.1932 5.11694 14.209 5.15459C14.2249 5.19226 14.2425 5.2291 14.2621 5.26499C14.2815 5.30087 14.3028 5.33574 14.3257 5.36949C14.3486 5.40321 14.3732 5.43576 14.3993 5.46701C14.4256 5.49828 14.4532 5.52823 14.4824 5.55671C14.5115 5.58519 14.5419 5.61217 14.5739 5.63757C14.6057 5.66299 14.6387 5.68678 14.6729 5.70888C14.7071 5.73098 14.7424 5.75134 14.7785 5.76988C14.8147 5.78844 14.8518 5.80516 14.8896 5.81998C14.9275 5.8348 14.966 5.84769 15.0051 5.85862C15.0443 5.86953 15.0839 5.87848 15.1239 5.88539C15.1639 5.89235 15.2043 5.8973 15.2447 5.9002C15.2735 5.90226 15.3022 5.90327 15.331 5.90328C15.3715 5.90328 15.4122 5.90126 15.4526 5.89719C15.4929 5.8931 15.5332 5.88699 15.5729 5.87887C15.6128 5.87076 15.6521 5.86063 15.691 5.84856C15.7297 5.83648 15.7679 5.82245 15.8053 5.80653C15.8426 5.7906 15.8793 5.77281 15.9149 5.75321C15.9506 5.73362 15.9851 5.71223 16.0187 5.68914C16.0522 5.66607 16.0846 5.64134 16.1157 5.61502C16.1467 5.58867 16.1764 5.5608 16.2047 5.53146C16.2331 5.50214 16.2599 5.47141 16.285 5.43939C16.3103 5.40737 16.3339 5.3741 16.3558 5.3397C16.3778 5.30531 16.3981 5.26982 16.4164 5.23341C16.4349 5.19696 16.4515 5.15963 16.4662 5.12153C16.481 5.08344 16.4937 5.04463 16.5046 5.00524C16.5154 4.96587 16.5243 4.92596 16.5312 4.88569C16.5382 4.84542 16.5431 4.80482 16.5458 4.76407C16.5479 4.7352 16.549 4.70627 16.549 4.67732C16.549 4.63645 16.5469 4.5956 16.5429 4.55494C16.5389 4.51427 16.5328 4.47384 16.5247 4.43378C16.5167 4.39373 16.5065 4.3541 16.4946 4.31506C16.4825 4.27601 16.4686 4.23757 16.4528 4.19992C16.4369 4.16226 16.4193 4.12541 16.3999 4.08952C16.3804 4.05364 16.3592 4.01877 16.3362 3.98502C16.3132 3.95127 16.2886 3.91871 16.2625 3.88744C16.2362 3.85617 16.2086 3.82623 16.1796 3.79774C16.1504 3.76927 16.1199 3.74228 16.0881 3.71688C16.0562 3.69148 16.0232 3.6677 15.989 3.64563C15.9549 3.62353 15.9196 3.60317 15.8833 3.58463C15.8471 3.56607 15.81 3.54935 15.7722 3.53453C15.7344 3.51971 15.6958 3.50682 15.6567 3.49589C15.6176 3.48495 15.5779 3.47599 15.5379 3.46905C15.4979 3.46212 15.4576 3.45719 15.4171 3.45431C15.3883 3.45226 15.3596 3.45117 15.3308 3.45117Z" fill="#FCFCFC"/>
<path d="M9.03898 0.0182528C8.4827 0.0173557 7.98627 0.0196621 7.54032 0.0259411L6.34474 0.0579772C5.99055 0.0733544 5.67762 0.0934076 5.39673 0.119357C5.25628 0.132299 5.12378 0.14678 4.9982 0.162734C4.87869 0.177796 4.75952 0.195335 4.64074 0.215338C4.52764 0.23456 4.42032 0.255318 4.31742 0.277871C4.21453 0.300425 4.11624 0.324773 4.02141 0.350914C3.92871 0.376477 3.83673 0.404595 3.74559 0.435234C3.65627 0.465348 3.56913 0.497256 3.48307 0.531342C3.31098 0.599516 3.14312 0.676016 2.97024 0.761745C2.83723 0.827739 2.71434 0.894566 2.5976 0.965302C2.48087 1.03604 2.37027 1.11075 2.26199 1.19212C2.15048 1.27633 2.04299 1.36574 1.93991 1.46007C1.83213 1.55823 1.72206 1.66619 1.60769 1.78684C1.46398 1.9376 1.3391 2.07817 1.22825 2.21612C1.17283 2.28506 1.12093 2.35324 1.07204 2.4218C1.0237 2.48935 0.977479 2.55842 0.933455 2.62887C0.889887 2.69871 0.848625 2.76984 0.809155 2.843C0.769072 2.91743 0.731188 2.99303 0.695555 3.06968C0.622641 3.22628 0.554597 3.39492 0.48668 3.58317C0.436295 3.72232 0.391177 3.86335 0.351423 4.00591C0.310866 4.15162 0.274794 4.30405 0.242629 4.46889C0.210465 4.63375 0.182401 4.81105 0.157733 5.0071C0.131151 5.22202 0.109916 5.43756 0.0940457 5.65353C0.0761056 5.89098 0.0612408 6.15227 0.0490671 6.44309L0.0202347 7.41007L0.00472917 8.58881L0.000244141 10.0136L0.0133789 12.0855L0.0543852 13.6552L0.0859727 14.2684L0.125441 14.7766C0.138093 14.9135 0.153923 15.05 0.172919 15.1863C0.190218 15.3073 0.2088 15.4131 0.22879 15.5048C0.269352 15.691 0.317316 15.8756 0.372568 16.0581C0.42547 16.2328 0.485969 16.405 0.553891 16.5745C0.620655 16.7404 0.693697 16.9004 0.773147 17.0545C0.852597 17.2085 0.938452 17.3566 1.03072 17.4988C1.12298 17.6409 1.22165 17.7773 1.32699 17.9078C1.4322 18.0384 1.54412 18.1632 1.66228 18.2823C1.78062 18.4014 1.90544 18.5148 2.03698 18.6225C2.17006 18.7316 2.30842 18.8341 2.45152 18.9295C2.58434 19.0182 2.71575 19.0996 2.84813 19.1742C2.98049 19.2489 3.11402 19.3166 3.25127 19.3782C3.3885 19.4398 3.52921 19.4952 3.6762 19.545C3.82317 19.5949 3.97631 19.6392 4.13816 19.6785C4.3 19.7179 4.47132 19.7524 4.65266 19.7825C4.83398 19.8127 5.0278 19.8385 5.23488 19.8607C5.44196 19.8829 5.66288 19.9013 5.90027 19.9167C6.13766 19.9321 6.39138 19.9443 6.664 19.9542C7.08516 19.9695 7.72267 19.9784 8.45784 19.9818L10.8378 19.977L13.0915 19.9454L13.9484 19.9213L14.5066 19.8927C14.6265 19.8828 14.7437 19.8713 14.8569 19.8578C14.9701 19.8443 15.0816 19.8289 15.1904 19.8113C15.299 19.7938 15.4052 19.7742 15.5095 19.7524C15.6127 19.7309 15.7154 19.7068 15.8173 19.6804C15.9183 19.6548 16.0179 19.6256 16.1165 19.5946C16.2149 19.5638 16.3126 19.5303 16.4095 19.4943C16.507 19.4582 16.6035 19.4198 16.6992 19.3791C16.7955 19.3379 16.8916 19.2942 16.9881 19.2477C17.1363 19.1763 17.2556 19.1167 17.3604 19.0586C17.459 19.0046 17.5538 18.9442 17.6445 18.8777C17.734 18.8118 17.8229 18.7368 17.9254 18.6424C18.0279 18.5479 18.1441 18.4342 18.2879 18.2903C18.4144 18.1639 18.5209 18.0541 18.6129 17.9542C18.7048 17.8543 18.7823 17.7645 18.8502 17.6778C18.9149 17.5956 18.9752 17.51 19.0309 17.4214C19.0852 17.3349 19.1352 17.245 19.186 17.1454C19.2627 16.9956 19.3309 16.8567 19.3919 16.7227C19.4512 16.5936 19.5054 16.4621 19.5542 16.3288C19.6024 16.1964 19.6442 16.0618 19.6794 15.9254C19.7155 15.7852 19.7466 15.637 19.7735 15.4745C19.8004 15.312 19.8231 15.1352 19.8428 14.9377C19.8626 14.7403 19.8794 14.522 19.8941 14.2768L19.9333 13.4537L19.9667 12.43L19.9908 11.2895L19.9999 10.097L19.9785 7.75484L19.9499 6.70578L19.9109 5.80506L19.8622 5.10282C19.8445 4.90741 19.8254 4.7535 19.8052 4.64945C19.7827 4.53448 19.7577 4.42005 19.7301 4.30621C19.7031 4.19546 19.6735 4.08538 19.6413 3.97606C19.6099 3.86955 19.5758 3.76385 19.539 3.65909C19.5026 3.55562 19.464 3.45431 19.4235 3.3552C19.3833 3.25607 19.3395 3.15927 19.2941 3.0645C19.2485 2.96974 19.2009 2.87728 19.1509 2.78693C19.1008 2.6966 19.0487 2.6085 18.9941 2.52257C18.9397 2.43666 18.8829 2.35291 18.8237 2.27141C18.7649 2.19017 18.7035 2.1108 18.6398 2.03338C18.5763 1.95641 18.5105 1.88145 18.4423 1.80862C18.3742 1.73589 18.3038 1.66534 18.2313 1.59706C18.1587 1.52875 18.084 1.46263 18.0069 1.39868C17.9294 1.33453 17.8501 1.2728 17.7687 1.21358C17.6866 1.15376 17.6027 1.09645 17.517 1.04174C17.4302 0.986252 17.3419 0.933348 17.2519 0.883098C17.1605 0.832007 17.0674 0.783548 16.9733 0.737782C16.8167 0.661728 16.672 0.594261 16.5301 0.534418C16.3904 0.475027 16.248 0.422278 16.1034 0.376352C15.958 0.330539 15.8066 0.291264 15.6401 0.25737C15.4734 0.223475 15.2917 0.19522 15.0862 0.171192C14.8806 0.147166 14.651 0.127752 14.3884 0.111606C14.1259 0.0954597 13.8305 0.0827725 13.4933 0.0725209L12.3473 0.0468925L10.8969 0.0297853L9.03962 0.0183798L9.03898 0.0182528ZM10.0036 1.78037L12.682 1.79562L13.6924 1.81509C13.9706 1.82291 14.183 1.83207 14.3074 1.84264C14.4697 1.8563 14.624 1.87339 14.7717 1.89391C14.9134 1.91348 15.0545 1.93781 15.1945 1.96688C15.3291 1.99507 15.4574 2.0271 15.5804 2.06324C15.7031 2.09938 15.8205 2.13988 15.933 2.18466C16.0456 2.22945 16.1533 2.27871 16.2569 2.33267C16.3597 2.38621 16.4595 2.44513 16.556 2.50918C16.6522 2.57293 16.7448 2.64163 16.8348 2.71563C16.9247 2.78963 17.0119 2.86895 17.097 2.95378C17.187 3.0433 17.2699 3.13446 17.3463 3.22852C17.4224 3.322 17.493 3.41998 17.5573 3.52191C17.6224 3.6253 17.681 3.73262 17.733 3.84323C17.786 3.956 17.8337 4.07517 17.8765 4.20184C17.9194 4.32852 17.9574 4.46313 17.9912 4.60698C18.0266 4.75948 18.0562 4.91325 18.0801 5.06798C18.1056 5.232 18.1276 5.40692 18.1462 5.5942C18.1647 5.78148 18.1801 5.9812 18.1927 6.19488C18.2029 6.36627 18.2117 6.59245 18.2192 6.85956L18.238 7.77035L18.2523 10.0013L18.236 12.2302L18.2165 13.1384L18.1894 13.7989C18.1708 14.1082 18.151 14.3682 18.1274 14.5945C18.1156 14.7077 18.1027 14.8124 18.0885 14.9106C18.0752 15.0034 18.0594 15.0957 18.0412 15.1877C18.0245 15.2716 18.0052 15.3549 17.9831 15.4377C17.9622 15.5164 17.9384 15.5946 17.9122 15.672C17.8856 15.7496 17.8569 15.8264 17.8258 15.9023C17.7929 15.9825 17.7581 16.0618 17.7216 16.1404C17.6891 16.2106 17.6549 16.2789 17.6188 16.3453C17.5831 16.4111 17.5451 16.4756 17.5051 16.5388C17.4654 16.6014 17.4237 16.6623 17.3801 16.7211C17.3367 16.7798 17.2913 16.8368 17.2438 16.8923C17.1966 16.9475 17.1473 17.0009 17.096 17.0525C17.0448 17.1041 16.9916 17.1538 16.9365 17.2018C16.8815 17.2499 16.8242 17.2961 16.7651 17.3406C16.706 17.385 16.6448 17.4277 16.5816 17.4685C16.5183 17.5095 16.4531 17.5486 16.3858 17.5861C16.3184 17.6235 16.249 17.6592 16.1776 17.6932C16.1048 17.7278 16.0312 17.7602 15.9565 17.7903C15.8794 17.8214 15.8015 17.8503 15.7227 17.8771C15.5624 17.9317 15.3935 17.9796 15.2156 18.0209C15.0304 18.0638 14.8433 18.0988 14.6549 18.1259C14.5824 18.1364 14.416 18.1464 14.1777 18.1556L13.2695 18.1809L10.6944 18.2143L7.99914 18.2185L6.94067 18.2073L6.25337 18.1859L5.74656 18.1502C5.5892 18.137 5.44285 18.1223 5.30574 18.1054C5.16863 18.0888 5.04094 18.0702 4.9208 18.0491C4.80695 18.0295 4.6938 18.0059 4.58153 17.9786C4.47917 17.9538 4.37785 17.9248 4.27784 17.8917C4.18141 17.8596 4.0892 17.8243 3.99951 17.7856C3.9098 17.7468 3.82266 17.7043 3.73635 17.6579C3.65005 17.6116 3.56464 17.5613 3.47827 17.5063C3.41312 17.4649 3.35013 17.4229 3.28952 17.3786C3.22891 17.3342 3.17034 17.2899 3.11396 17.2435C3.05757 17.1971 3.00344 17.1493 2.95121 17.1002C2.89934 17.0511 2.84926 17.0003 2.80103 16.9478C2.75298 16.8953 2.70703 16.8414 2.66295 16.7856C2.6187 16.7295 2.57653 16.6717 2.53655 16.6125C2.49595 16.5524 2.45755 16.4909 2.42141 16.4281C2.38488 16.3646 2.35016 16.2991 2.31716 16.2313C2.2836 16.1624 2.2523 16.0924 2.2233 16.0214C2.19382 15.9491 2.16588 15.8745 2.13962 15.7975C2.08707 15.6434 2.04095 15.4793 2.00084 15.3045C1.96073 15.1296 1.92651 14.9438 1.89755 14.7457C1.86859 14.5478 1.84527 14.3378 1.82669 14.1148C1.81298 13.9504 1.80209 13.6945 1.79376 13.3715L1.77632 12.223L1.78273 9.29527L1.83316 6.49762L1.8716 5.51193L1.89338 5.18612C1.90095 5.09912 1.90877 5.03466 1.91677 4.99595C1.94317 4.86864 1.96975 4.75017 1.99724 4.63927C2.02292 4.53463 2.05149 4.43074 2.08291 4.32768C2.11277 4.23042 2.14423 4.13931 2.17787 4.053C2.2103 3.96939 2.24645 3.88728 2.28621 3.80691C2.32503 3.72874 2.36676 3.65389 2.41205 3.58105C2.45735 3.5082 2.50624 3.43753 2.55955 3.36724C2.61285 3.29695 2.67025 3.22756 2.73273 3.15721C2.7952 3.08687 2.86267 3.01581 2.93584 2.94257C3.02112 2.85681 3.10991 2.77462 3.20199 2.69621C3.28895 2.62224 3.37962 2.55275 3.47366 2.48805C3.56612 2.42396 3.66095 2.36695 3.75969 2.31453C3.85842 2.26213 3.96106 2.21477 4.06902 2.17217C4.17698 2.12956 4.29039 2.09143 4.41052 2.05684C4.53674 2.02144 4.66435 1.99123 4.79303 1.9663C4.92835 1.93978 5.07207 1.91664 5.22552 1.89646C5.37898 1.87628 5.54223 1.85885 5.71677 1.84373C5.8385 1.83323 6.04827 1.82387 6.32449 1.81599L7.32978 1.79613L10.004 1.77978L10.0036 1.78037Z" fill="#FCFCFC"/>
</svg>
