<svg width="20" height="20" viewBox="0 0 20 20" fill="none" xmlns="http://www.w3.org/2000/svg">
<g clip-path="url(#clip0_29_35)">
<mask id="mask0_29_35" style="mask-type:luminance" maskUnits="userSpaceOnUse" x="0" y="0" width="20" height="20">
<path d="M20 0H0V20H20V0Z" fill="white"/>
</mask>
<g mask="url(#mask0_29_35)">
<path d="M9.22918 19.5965C3.55352 11.3684 2.5 10.5239 2.5 7.5C2.5 3.35785 5.85785 0 10 0C14.1422 0 17.5 3.35785 17.5 7.5C17.5 10.5239 16.4465 11.3684 10.7708 19.5965C10.3984 20.1345 9.60164 20.1345 9.22918 19.5965ZM10 10.625C11.7259 10.625 13.125 9.22591 13.125 7.5C13.125 5.7741 11.7259 4.375 10 4.375C8.2741 4.375 6.875 5.7741 6.875 7.5C6.875 9.22591 8.2741 10.625 10 10.625Z" fill="#F6C44F"/>
</g>
</g>
<defs>
<clipPath id="clip0_29_35">
<rect width="20" height="20" fill="white"/>
</clipPath>
</defs>
</svg>
