<svg width="20" height="20" viewBox="0 0 20 20" fill="none" xmlns="http://www.w3.org/2000/svg">
<g clip-path="url(#clip0_29_48)">
<mask id="mask0_29_48" style="mask-type:luminance" maskUnits="userSpaceOnUse" x="0" y="0" width="20" height="20">
<path d="M20 0H0V20H20V0Z" fill="white"/>
</mask>
<g mask="url(#mask0_29_48)">
<path d="M6.44141 0.960838C6.14063 0.234279 5.34765 -0.15244 4.58985 0.0545918L1.15235 0.992093C0.472656 1.17959 0 1.79677 0 2.4999C0 12.164 7.83594 19.9999 17.5 19.9999C18.2031 19.9999 18.8203 19.5273 19.0078 18.8475L19.9453 15.4101C20.1524 14.6523 19.7656 13.8593 19.0391 13.5585L15.2891 11.996C14.6524 11.7304 13.9141 11.914 13.4805 12.4491L11.9024 14.3749C9.15236 13.0741 6.92578 10.8475 5.625 8.09756L7.55078 6.52334C8.08594 6.08584 8.26953 5.35147 8.00391 4.71475L6.44141 0.964748V0.960838Z" fill="#F6C44F"/>
</g>
</g>
<defs>
<clipPath id="clip0_29_48">
<rect width="20" height="20" fill="white"/>
</clipPath>
</defs>
</svg>
