<svg width="24" height="24" viewBox="0 0 24 24" fill="none" xmlns="http://www.w3.org/2000/svg">
<g clip-path="url(#clip0_147_22)">
<mask id="mask0_147_22" style="mask-type:luminance" maskUnits="userSpaceOnUse" x="0" y="0" width="24" height="24">
<path d="M24 0H0V24H24V0Z" fill="white"/>
</mask>
<g mask="url(#mask0_147_22)">
<path d="M7.72969 1.1532C7.36875 0.281331 6.41719 -0.182732 5.50782 0.0657054L1.38281 1.19071C0.567188 1.41571 0 2.15633 0 3.00008C0 14.597 9.40312 24.0001 21 24.0001C21.8437 24.0001 22.5843 23.4329 22.8094 22.6173L23.9343 18.4923C24.1828 17.5829 23.7188 16.6313 22.8469 16.2703L18.3469 14.3954C17.5828 14.0766 16.6969 14.297 16.1765 14.9391L14.2828 17.2501C10.9828 15.6891 8.31094 13.0173 6.75 9.71726L9.06094 7.8282C9.70312 7.3032 9.92343 6.42195 9.60469 5.65789L7.72969 1.15789V1.1532Z" fill="#0D0D0D"/>
</g>
</g>
<defs>
<clipPath id="clip0_147_22">
<rect width="24" height="24" fill="white"/>
</clipPath>
</defs>
</svg>
